<svg viewBox="0 0 330 200" xmlns="http://www.w3.org/2000/svg"><g><g><g><g><g><line x1="70" y1="177" x2="65" y2="177" style="visibility: inherit;" fill="rgb(0, 0, 0)" stroke="rgb(204, 204, 204)" stroke-width="1px"></line><line x1="70" y1="162.24999999999574" x2="65" y2="162.24999999999574" style="visibility: inherit;" fill="rgb(0, 0, 0)" stroke="rgb(204, 204, 204)" stroke-width="1px"></line><line x1="70" y1="147.4999999999966" x2="65" y2="147.4999999999966" style="visibility: inherit;" fill="rgb(0, 0, 0)" stroke="rgb(204, 204, 204)" stroke-width="1px"></line><line x1="70" y1="132.74999999999744" x2="65" y2="132.74999999999744" style="visibility: inherit;" fill="rgb(0, 0, 0)" stroke="rgb(204, 204, 204)" stroke-width="1px"></line><line x1="70" y1="117.99999999999828" x2="65" y2="117.99999999999828" style="visibility: inherit;" fill="rgb(0, 0, 0)" stroke="rgb(204, 204, 204)" stroke-width="1px"></line><line x1="70" y1="103.24999999999916" x2="65" y2="103.24999999999916" style="visibility: inherit;" fill="rgb(0, 0, 0)" stroke="rgb(204, 204, 204)" stroke-width="1px"></line><line x1="70" y1="88.5" x2="65" y2="88.5" style="visibility: inherit;" fill="rgb(0, 0, 0)" stroke="rgb(204, 204, 204)" stroke-width="1px"></line><line x1="70" y1="73.75000000000085" x2="65" y2="73.75000000000085" style="visibility: inherit;" fill="rgb(0, 0, 0)" stroke="rgb(204, 204, 204)" stroke-width="1px"></line><line x1="70" y1="59.0000000000017" x2="65" y2="59.0000000000017" style="visibility: inherit;" fill="rgb(0, 0, 0)" stroke="rgb(204, 204, 204)" stroke-width="1px"></line><line x1="70" y1="44.25000000000256" x2="65" y2="44.25000000000256" style="visibility: inherit;" fill="rgb(0, 0, 0)" stroke="rgb(204, 204, 204)" stroke-width="1px"></line><line x1="70" y1="29.499999999998302" x2="65" y2="29.499999999998302" style="visibility: inherit;" fill="rgb(0, 0, 0)" stroke="rgb(204, 204, 204)" stroke-width="1px"></line><line x1="70" y1="14.749999999999142" x2="65" y2="14.749999999999142" style="visibility: inherit;" fill="rgb(0, 0, 0)" stroke="rgb(204, 204, 204)" stroke-width="1px"></line><line x1="70" y1="0" x2="65" y2="0" style="visibility: inherit;" fill="rgb(0, 0, 0)" stroke="rgb(204, 204, 204)" stroke-width="1px"></line></g><g transform="translate(60, 0)"><text x="0" y="177" dx="0em" dy="0.3em" style="text-anchor: end; visibility: hidden; font-family: Roboto, sans-serif; font-size: 12px; font-weight: 200;" fill="rgb(33, 33, 33)" stroke="none" stroke-width="1px">0.0435</text><text x="0" y="162.24999999999574" dx="0em" dy="0.3em" style="text-anchor: end; visibility: inherit; font-family: Roboto, sans-serif; font-size: 12px; font-weight: 200;" fill="rgb(33, 33, 33)" stroke="none" stroke-width="1px">0.0435</text><text x="0" y="147.4999999999966" dx="0em" dy="0.3em" style="text-anchor: end; visibility: hidden; font-family: Roboto, sans-serif; font-size: 12px; font-weight: 200;" fill="rgb(33, 33, 33)" stroke="none" stroke-width="1px">0.0435</text><text x="0" y="132.74999999999744" dx="0em" dy="0.3em" style="text-anchor: end; visibility: inherit; font-family: Roboto, sans-serif; font-size: 12px; font-weight: 200;" fill="rgb(33, 33, 33)" stroke="none" stroke-width="1px">0.0436</text><text x="0" y="117.99999999999828" dx="0em" dy="0.3em" style="text-anchor: end; visibility: hidden; font-family: Roboto, sans-serif; font-size: 12px; font-weight: 200;" fill="rgb(33, 33, 33)" stroke="none" stroke-width="1px">0.0436</text><text x="0" y="103.24999999999916" dx="0em" dy="0.3em" style="text-anchor: end; visibility: inherit; font-family: Roboto, sans-serif; font-size: 12px; font-weight: 200;" fill="rgb(33, 33, 33)" stroke="none" stroke-width="1px">0.0436</text><text x="0" y="88.5" dx="0em" dy="0.3em" style="text-anchor: end; visibility: hidden; font-family: Roboto, sans-serif; font-size: 12px; font-weight: 200;" fill="rgb(33, 33, 33)" stroke="none" stroke-width="1px">0.0436</text><text x="0" y="73.75000000000085" dx="0em" dy="0.3em" style="text-anchor: end; visibility: inherit; font-family: Roboto, sans-serif; font-size: 12px; font-weight: 200;" fill="rgb(33, 33, 33)" stroke="none" stroke-width="1px">0.0436</text><text x="0" y="59.0000000000017" dx="0em" dy="0.3em" style="text-anchor: end; visibility: hidden; font-family: Roboto, sans-serif; font-size: 12px; font-weight: 200;" fill="rgb(33, 33, 33)" stroke="none" stroke-width="1px">0.0437</text><text x="0" y="44.25000000000256" dx="0em" dy="0.3em" style="text-anchor: end; visibility: inherit; font-family: Roboto, sans-serif; font-size: 12px; font-weight: 200;" fill="rgb(33, 33, 33)" stroke="none" stroke-width="1px">0.0437</text><text x="0" y="29.499999999998302" dx="0em" dy="0.3em" style="text-anchor: end; visibility: hidden; font-family: Roboto, sans-serif; font-size: 12px; font-weight: 200;" fill="rgb(33, 33, 33)" stroke="none" stroke-width="1px">0.0437</text><text x="0" y="14.749999999999142" dx="0em" dy="0.3em" style="text-anchor: end; visibility: inherit; font-family: Roboto, sans-serif; font-size: 12px; font-weight: 200;" fill="rgb(33, 33, 33)" stroke="none" stroke-width="1px">0.0437</text><text x="0" y="0" dx="0em" dy="0.3em" style="text-anchor: end; visibility: hidden; font-family: Roboto, sans-serif; font-size: 12px; font-weight: 200;" fill="rgb(33, 33, 33)" stroke="none" stroke-width="1px">0.0437</text></g><line x1="70" y1="0" x2="70" y2="177" fill="rgb(0, 0, 0)" stroke="rgb(204, 204, 204)" stroke-width="1px"></line></g></g><g transform="translate(70, 0)" clip-path="url(#clip_0)"><clipPath id="clip_0"><rect width="260" height="177"></rect></clipPath><g><g><g><line x1="0" y1="0" x2="0" y2="177" fill="rgb(0, 0, 0)" stroke="rgb(66, 66, 66)" stroke-width="1px" opacity="0.25"></line><line x1="21.666666666666664" y1="0" x2="21.666666666666664" y2="177" fill="rgb(0, 0, 0)" stroke="rgb(66, 66, 66)" stroke-width="1px" opacity="0.25"></line><line x1="43.33333333333333" y1="0" x2="43.33333333333333" y2="177" fill="rgb(0, 0, 0)" stroke="rgb(66, 66, 66)" stroke-width="1px" opacity="0.25"></line><line x1="65" y1="0" x2="65" y2="177" fill="rgb(0, 0, 0)" stroke="rgb(66, 66, 66)" stroke-width="1px" opacity="0.25"></line><line x1="86.66666666666666" y1="0" x2="86.66666666666666" y2="177" fill="rgb(0, 0, 0)" stroke="rgb(66, 66, 66)" stroke-width="1px" opacity="0.25"></line><line x1="108.33333333333334" y1="0" x2="108.33333333333334" y2="177" fill="rgb(0, 0, 0)" stroke="rgb(66, 66, 66)" stroke-width="1px" opacity="0.25"></line><line x1="130" y1="0" x2="130" y2="177" fill="rgb(0, 0, 0)" stroke="rgb(66, 66, 66)" stroke-width="1px" opacity="0.25"></line><line x1="151.66666666666669" y1="0" x2="151.66666666666669" y2="177" fill="rgb(0, 0, 0)" stroke="rgb(66, 66, 66)" stroke-width="1px" opacity="0.25"></line><line x1="173.33333333333331" y1="0" x2="173.33333333333331" y2="177" fill="rgb(0, 0, 0)" stroke="rgb(66, 66, 66)" stroke-width="1px" opacity="0.25"></line><line x1="195" y1="0" x2="195" y2="177" fill="rgb(0, 0, 0)" stroke="rgb(66, 66, 66)" stroke-width="1px" opacity="0.25"></line><line x1="216.66666666666669" y1="0" x2="216.66666666666669" y2="177" fill="rgb(0, 0, 0)" stroke="rgb(66, 66, 66)" stroke-width="1px" opacity="0.25"></line><line x1="238.33333333333331" y1="0" x2="238.33333333333331" y2="177" fill="rgb(0, 0, 0)" stroke="rgb(66, 66, 66)" stroke-width="1px" opacity="0.25"></line><line x1="260" y1="0" x2="260" y2="177" fill="rgb(0, 0, 0)" stroke="rgb(66, 66, 66)" stroke-width="1px" opacity="0.25"></line></g><g><line x1="0" y1="177" x2="260" y2="177" fill="rgb(0, 0, 0)" stroke="rgb(66, 66, 66)" stroke-width="1px" opacity="0.25"></line><line x1="0" y1="162.24999999999574" x2="260" y2="162.24999999999574" fill="rgb(0, 0, 0)" stroke="rgb(66, 66, 66)" stroke-width="1px" opacity="0.25"></line><line x1="0" y1="147.4999999999966" x2="260" y2="147.4999999999966" fill="rgb(0, 0, 0)" stroke="rgb(66, 66, 66)" stroke-width="1px" opacity="0.25"></line><line x1="0" y1="132.74999999999744" x2="260" y2="132.74999999999744" fill="rgb(0, 0, 0)" stroke="rgb(66, 66, 66)" stroke-width="1px" opacity="0.25"></line><line x1="0" y1="117.99999999999828" x2="260" y2="117.99999999999828" fill="rgb(0, 0, 0)" stroke="rgb(66, 66, 66)" stroke-width="1px" opacity="0.25"></line><line x1="0" y1="103.24999999999916" x2="260" y2="103.24999999999916" fill="rgb(0, 0, 0)" stroke="rgb(66, 66, 66)" stroke-width="1px" opacity="0.25"></line><line x1="0" y1="88.5" x2="260" y2="88.5" fill="rgb(0, 0, 0)" stroke="rgb(66, 66, 66)" stroke-width="1px" opacity="0.25"></line><line x1="0" y1="73.75000000000085" x2="260" y2="73.75000000000085" fill="rgb(0, 0, 0)" stroke="rgb(66, 66, 66)" stroke-width="1px" opacity="0.25"></line><line x1="0" y1="59.0000000000017" x2="260" y2="59.0000000000017" fill="rgb(0, 0, 0)" stroke="rgb(66, 66, 66)" stroke-width="1px" opacity="0.25"></line><line x1="0" y1="44.25000000000256" x2="260" y2="44.25000000000256" fill="rgb(0, 0, 0)" stroke="rgb(66, 66, 66)" stroke-width="1px" opacity="0.25"></line><line x1="0" y1="29.499999999998302" x2="260" y2="29.499999999998302" fill="rgb(0, 0, 0)" stroke="rgb(66, 66, 66)" stroke-width="1px" opacity="0.25"></line><line x1="0" y1="14.749999999999142" x2="260" y2="14.749999999999142" fill="rgb(0, 0, 0)" stroke="rgb(66, 66, 66)" stroke-width="1px" opacity="0.25"></line><line x1="0" y1="0" x2="260" y2="0" fill="rgb(0, 0, 0)" stroke="rgb(66, 66, 66)" stroke-width="1px" opacity="0.25"></line></g></g></g><g><g><line x1="0" y1="32258.24999999945" x2="260" y2="32258.24999999945" fill="rgb(0, 0, 0)" stroke="rgb(153, 153, 153)" stroke-width="1.5px"></line></g></g><g><g><line x1="21.666666666666664" y1="0" x2="21.666666666666664" y2="177" fill="rgb(0, 0, 0)" stroke="rgb(153, 153, 153)" stroke-width="1.5px"></line></g></g><g><g><g><g><g><path stroke="rgb(255, 112, 67)" stroke-width="2px" d="M30.333333333333332,-75.71960002299767L32.5,20.195865767480306L34.666666666666664,75.51544858802121L36.833333333333336,109.28746730322794L39,125.36170813826112L41.166666666666664,135.0103008195641L43.33333333333333,145.9966403826927L45.5,153.289775593075L47.666666666666664,155.06404616932005L49.833333333333336,153.8471922144622L52,156.13575641893712L54.16666666666667,153.36835241512293L56.333333333333336,151.21489289267947L58.5,151.14631791364943L60.666666666666664,154.32862535909652L62.833333333333336,154.7278585892825L65,154.25085113069935L67.16666666666667,158.64299036588977L69.33333333333333,155.6284356498749L71.5,155.14177396868956L73.66666666666667,155.79928312655778L75.83333333333334,157.38286486363515L78,154.45367715427747L80.16666666666667,153.1544333148605L82.33333333333333,153.81892233230593L84.5,153.7868229207226L86.66666666666666,153.13456186683646L88.83333333333333,151.58270276374114L91,154.78148165590906L93.16666666666667,154.81932822722456L95.33333333333333,154.90577588741155L97.5,156.19287625248236L99.66666666666667,153.92980716195802L101.83333333333333,153.95116132247668L104,155.1277731370202L106.16666666666667,155.53702085140227L108.33333333333334,151.6153107368674L110.5,154.79225460346436L112.66666666666667,153.0751476977606L114.83333333333333,151.00966263343594L117,156.33776036872155L119.16666666666666,159.07855034472192L121.33333333333333,155.62055008757255L123.5,153.5369582482594L125.66666666666667,151.54170783209355L127.83333333333333,156.54159662040541L130,152.16970193332406L132.16666666666666,152.953343099036L134.33333333333334,154.06532081108116L136.5,150.9323015519433L138.66666666666666,150.76357170990065L140.83333333333331,154.17790888578193L143,155.7935206999225L145.16666666666666,151.96042980013763L147.33333333333334,153.78167765294828L149.5,152.74903649065425L151.66666666666669,149.81504068954632L153.83333333333334,150.21739774456168L156,150.42694211906857L158.16666666666666,151.8472443753861L160.33333333333334,152.63238913025782L162.5,149.76703148606836L164.66666666666666,153.36568742706865L166.83333333333334,152.90825571247458L169,153.3997722484374L171.16666666666666,153.50895782218322L173.33333333333331,153.1140046590924L175.5,153.02099660481585L177.66666666666666,156.03129195240095L179.83333333333334,154.2427689139089L182,153.41802019500906L184.16666666666669,151.66595999374732L186.33333333333334,150.3421816347517L188.5,153.48988642802217L190.66666666666666,154.7301225275402L192.83333333333334,154.45332975451018L195,155.35214694895487L197.16666666666666,157.4376748833507L199.33333333333334,154.83713460763508L201.5,158.1309195804642L203.66666666666666,158.7884377985041L205.83333333333331,159.14448510699643L208,154.28531118687036L210.16666666666666,153.4303580311304L212.33333333333334,152.8382609717471L214.5,152.17199687554694L216.66666666666669,152.92614708777745L218.83333333333334,156.32385172508177L221,152.75008252895807L223.16666666666666,153.96204679987812L225.33333333333334,155.08375223148977L227.5,157.31510167520634L229.66666666666666,156.08454136968314L231.83333333333334,154.46923459721137L234,158.0211745986506L236.16666666666666,160.50620392496498" style="fill: none;" fill="none"></path></g></g></g></g><g opacity="0.2"><g><g><g><path stroke="rgb(255, 112, 67)" stroke-width="2px" d="M21.666666666666664,-3899.203432679109L23.833333333333332,131.65505979955051L26,155.46953682601267L28.166666666666668,152.76059885322866L30.333333333333332,154.69476957619008L32.5,152.88148452341377L34.666666666666664,154.62333713471708L36.833333333333336,158.52739480137635L39,149.0680911093933L41.166666666666664,149.33733646571463L43.33333333333333,162.37650443613333L45.5,164.18978948890964L47.666666666666664,157.71965873241237L49.833333333333336,152.0242952257377L52,159.56591260433004L54.16666666666667,149.21919819712465L56.333333333333336,147.98561488091775L58.5,151.04347285628143L60.666666666666664,159.10160173475552L62.833333333333336,155.32667194306666L65,153.53536610305127L67.16666666666667,165.23105469345845L69.33333333333333,151.1066630929691L71.5,154.41178721189314L73.66666666666667,156.78554219007304L75.83333333333334,159.75823071598813L78,150.05990308523002L80.16666666666667,151.20556955039325L82.33333333333333,154.81565524637514L84.5,153.73867382108983L86.66666666666666,152.15617050230324L88.83333333333333,149.25491441786116L91,159.57964961230564L93.16666666666667,154.8760980814677L95.33333333333333,155.03544737398443L97.5,158.12352676689437L99.66666666666667,150.53520356118503L101.83333333333333,153.98319256305513L104,156.89269085228256L106.16666666666667,156.15089242160136L108.33333333333334,145.73274557292294L110.5,159.5576703995447L112.66666666666667,150.49948734044852L114.83333333333333,147.91143503784963L117,164.32990697026054L119.16666666666666,163.18973530828757L121.33333333333333,150.43354970216575L123.5,150.41157048940482L125.66666666666667,148.54883220791643L127.83333333333333,164.0414298027734L130,145.61185990273785L132.16666666666666,154.12880484759626L134.33333333333334,155.73328737914377L136.5,146.232772663234L138.66666666666666,150.510476946829L140.83333333333331,159.29941464960385L143,158.2169384211283L145.16666666666666,146.21079345047306L147.33333333333334,156.51354943215662L149.5,151.200074747203L151.66666666666669,145.41404698788952L153.83333333333334,150.82093332707706L156,150.7412586808187L158.16666666666666,153.9776977598649L160.33333333333334,153.81010626256284L162.5,145.46899501979183L164.66666666666666,158.7636713385563L166.83333333333334,152.22210814058602L169,154.1370470523816L171.16666666666666,153.67273618280706L173.33333333333331,152.52157491445362L175.5,152.88148452341377L177.66666666666666,160.54673497378633L179.83333333333334,151.55998435616317L182,152.18089711665928L184.16666666666669,149.03786969184702L186.33333333333334,148.35651409625834L188.5,158.21144361793804L190.66666666666666,156.59047667681986L192.83333333333334,154.03814059495744L195,156.70037274062446L197.16666666666666,160.56596678495214L199.33333333333334,150.93632419407191L201.5,163.0715970396976L203.66666666666666,159.77471512555883L205.83333333333331,159.6785560697298L208,146.9965503066761L210.16666666666666,152.1479282975179L212.33333333333334,151.95011538266957L214.5,151.17260073125186L216.66666666666669,154.05737240612325L218.83333333333334,161.4204086810331L221,147.38942873477765L223.16666666666666,155.77999320626074L225.33333333333334,156.76631037890724L227.5,160.6621258407812L229.66666666666666,154.23870091140085L231.83333333333334,152.0462744384986L234,163.34908460080425L236.16666666666666,164.2337479144315" style="fill: none;" fill="none"></path></g></g></g></g></g></g><g transform="translate(70, 177)" clip-path="url(#clip_1)"><clipPath id="clip_1"><rect width="260" height="23"></rect></clipPath><g><g><line x1="0" y1="0" x2="0" y2="5" style="visibility: inherit;" fill="rgb(0, 0, 0)" stroke="rgb(204, 204, 204)" stroke-width="1px"></line><line x1="21.666666666666664" y1="0" x2="21.666666666666664" y2="5" style="visibility: inherit;" fill="rgb(0, 0, 0)" stroke="rgb(204, 204, 204)" stroke-width="1px"></line><line x1="43.33333333333333" y1="0" x2="43.33333333333333" y2="5" style="visibility: inherit;" fill="rgb(0, 0, 0)" stroke="rgb(204, 204, 204)" stroke-width="1px"></line><line x1="65" y1="0" x2="65" y2="5" style="visibility: inherit;" fill="rgb(0, 0, 0)" stroke="rgb(204, 204, 204)" stroke-width="1px"></line><line x1="86.66666666666666" y1="0" x2="86.66666666666666" y2="5" style="visibility: inherit;" fill="rgb(0, 0, 0)" stroke="rgb(204, 204, 204)" stroke-width="1px"></line><line x1="108.33333333333334" y1="0" x2="108.33333333333334" y2="5" style="visibility: inherit;" fill="rgb(0, 0, 0)" stroke="rgb(204, 204, 204)" stroke-width="1px"></line><line x1="130" y1="0" x2="130" y2="5" style="visibility: inherit;" fill="rgb(0, 0, 0)" stroke="rgb(204, 204, 204)" stroke-width="1px"></line><line x1="151.66666666666669" y1="0" x2="151.66666666666669" y2="5" style="visibility: inherit;" fill="rgb(0, 0, 0)" stroke="rgb(204, 204, 204)" stroke-width="1px"></line><line x1="173.33333333333331" y1="0" x2="173.33333333333331" y2="5" style="visibility: inherit;" fill="rgb(0, 0, 0)" stroke="rgb(204, 204, 204)" stroke-width="1px"></line><line x1="195" y1="0" x2="195" y2="5" style="visibility: inherit;" fill="rgb(0, 0, 0)" stroke="rgb(204, 204, 204)" stroke-width="1px"></line><line x1="216.66666666666669" y1="0" x2="216.66666666666669" y2="5" style="visibility: inherit;" fill="rgb(0, 0, 0)" stroke="rgb(204, 204, 204)" stroke-width="1px"></line><line x1="238.33333333333331" y1="0" x2="238.33333333333331" y2="5" style="visibility: inherit;" fill="rgb(0, 0, 0)" stroke="rgb(204, 204, 204)" stroke-width="1px"></line><line x1="260" y1="0" x2="260" y2="5" style="visibility: inherit;" fill="rgb(0, 0, 0)" stroke="rgb(204, 204, 204)" stroke-width="1px"></line></g><g transform="translate(0, 8)"><text x="0" y="0" dx="0em" dy="0.95em" style="text-anchor: middle; visibility: hidden; font-family: Roboto, sans-serif; font-size: 12px; font-weight: 200;" fill="rgb(33, 33, 33)" stroke="none" stroke-width="1px">-10</text><text x="21.666666666666664" y="0" dx="0em" dy="0.95em" style="text-anchor: middle; visibility: inherit; font-family: Roboto, sans-serif; font-size: 12px; font-weight: 200;" fill="rgb(33, 33, 33)" stroke="none" stroke-width="1px">0</text><text x="43.33333333333333" y="0" dx="0em" dy="0.95em" style="text-anchor: middle; visibility: inherit; font-family: Roboto, sans-serif; font-size: 12px; font-weight: 200;" fill="rgb(33, 33, 33)" stroke="none" stroke-width="1px">10</text><text x="65" y="0" dx="0em" dy="0.95em" style="text-anchor: middle; visibility: inherit; font-family: Roboto, sans-serif; font-size: 12px; font-weight: 200;" fill="rgb(33, 33, 33)" stroke="none" stroke-width="1px">20</text><text x="86.66666666666666" y="0" dx="0em" dy="0.95em" style="text-anchor: middle; visibility: inherit; font-family: Roboto, sans-serif; font-size: 12px; font-weight: 200;" fill="rgb(33, 33, 33)" stroke="none" stroke-width="1px">30</text><text x="108.33333333333334" y="0" dx="0em" dy="0.95em" style="text-anchor: middle; visibility: inherit; font-family: Roboto, sans-serif; font-size: 12px; font-weight: 200;" fill="rgb(33, 33, 33)" stroke="none" stroke-width="1px">40</text><text x="130" y="0" dx="0em" dy="0.95em" style="text-anchor: middle; visibility: inherit; font-family: Roboto, sans-serif; font-size: 12px; font-weight: 200;" fill="rgb(33, 33, 33)" stroke="none" stroke-width="1px">50</text><text x="151.66666666666669" y="0" dx="0em" dy="0.95em" style="text-anchor: middle; visibility: inherit; font-family: Roboto, sans-serif; font-size: 12px; font-weight: 200;" fill="rgb(33, 33, 33)" stroke="none" stroke-width="1px">60</text><text x="173.33333333333331" y="0" dx="0em" dy="0.95em" style="text-anchor: middle; visibility: inherit; font-family: Roboto, sans-serif; font-size: 12px; font-weight: 200;" fill="rgb(33, 33, 33)" stroke="none" stroke-width="1px">70</text><text x="195" y="0" dx="0em" dy="0.95em" style="text-anchor: middle; visibility: inherit; font-family: Roboto, sans-serif; font-size: 12px; font-weight: 200;" fill="rgb(33, 33, 33)" stroke="none" stroke-width="1px">80</text><text x="216.66666666666669" y="0" dx="0em" dy="0.95em" style="text-anchor: middle; visibility: inherit; font-family: Roboto, sans-serif; font-size: 12px; font-weight: 200;" fill="rgb(33, 33, 33)" stroke="none" stroke-width="1px">90</text><text x="238.33333333333331" y="0" dx="0em" dy="0.95em" style="text-anchor: middle; visibility: inherit; font-family: Roboto, sans-serif; font-size: 12px; font-weight: 200;" fill="rgb(33, 33, 33)" stroke="none" stroke-width="1px">100</text><text x="260" y="0" dx="0em" dy="0.95em" style="text-anchor: middle; visibility: hidden; font-family: Roboto, sans-serif; font-size: 12px; font-weight: 200;" fill="rgb(33, 33, 33)" stroke="none" stroke-width="1px">110</text></g><line x1="0" y1="0" x2="260" y2="0" fill="rgb(0, 0, 0)" stroke="rgb(204, 204, 204)" stroke-width="1px"></line></g></g></g></g></svg>