<svg viewBox="0 0 330 200" xmlns="http://www.w3.org/2000/svg"><g><g><g><g><g><line x1="70" y1="177" x2="65" y2="177" style="visibility: inherit;" fill="rgb(0, 0, 0)" stroke="rgb(204, 204, 204)" stroke-width="1px"></line><line x1="70" y1="157.33333333333346" x2="65" y2="157.33333333333346" style="visibility: inherit;" fill="rgb(0, 0, 0)" stroke="rgb(204, 204, 204)" stroke-width="1px"></line><line x1="70" y1="137.66666666666654" x2="65" y2="137.66666666666654" style="visibility: inherit;" fill="rgb(0, 0, 0)" stroke="rgb(204, 204, 204)" stroke-width="1px"></line><line x1="70" y1="118.00000000000001" x2="65" y2="118.00000000000001" style="visibility: inherit;" fill="rgb(0, 0, 0)" stroke="rgb(204, 204, 204)" stroke-width="1px"></line><line x1="70" y1="98.33333333333346" x2="65" y2="98.33333333333346" style="visibility: inherit;" fill="rgb(0, 0, 0)" stroke="rgb(204, 204, 204)" stroke-width="1px"></line><line x1="70" y1="78.66666666666654" x2="65" y2="78.66666666666654" style="visibility: inherit;" fill="rgb(0, 0, 0)" stroke="rgb(204, 204, 204)" stroke-width="1px"></line><line x1="70" y1="59.00000000000001" x2="65" y2="59.00000000000001" style="visibility: inherit;" fill="rgb(0, 0, 0)" stroke="rgb(204, 204, 204)" stroke-width="1px"></line><line x1="70" y1="39.33333333333345" x2="65" y2="39.33333333333345" style="visibility: inherit;" fill="rgb(0, 0, 0)" stroke="rgb(204, 204, 204)" stroke-width="1px"></line><line x1="70" y1="19.666666666666558" x2="65" y2="19.666666666666558" style="visibility: inherit;" fill="rgb(0, 0, 0)" stroke="rgb(204, 204, 204)" stroke-width="1px"></line><line x1="70" y1="0" x2="65" y2="0" style="visibility: inherit;" fill="rgb(0, 0, 0)" stroke="rgb(204, 204, 204)" stroke-width="1px"></line></g><g transform="translate(60, 0)"><text x="0" y="177" dx="0em" dy="0.3em" style="text-anchor: end; visibility: hidden; font-family: Roboto, sans-serif; font-size: 12px; font-weight: 200;" fill="rgb(33, 33, 33)" stroke="none" stroke-width="1px">0.0172</text><text x="0" y="157.33333333333346" dx="0em" dy="0.3em" style="text-anchor: end; visibility: inherit; font-family: Roboto, sans-serif; font-size: 12px; font-weight: 200;" fill="rgb(33, 33, 33)" stroke="none" stroke-width="1px">0.0174</text><text x="0" y="137.66666666666654" dx="0em" dy="0.3em" style="text-anchor: end; visibility: hidden; font-family: Roboto, sans-serif; font-size: 12px; font-weight: 200;" fill="rgb(33, 33, 33)" stroke="none" stroke-width="1px">0.0176</text><text x="0" y="118.00000000000001" dx="0em" dy="0.3em" style="text-anchor: end; visibility: inherit; font-family: Roboto, sans-serif; font-size: 12px; font-weight: 200;" fill="rgb(33, 33, 33)" stroke="none" stroke-width="1px">0.0178</text><text x="0" y="98.33333333333346" dx="0em" dy="0.3em" style="text-anchor: end; visibility: hidden; font-family: Roboto, sans-serif; font-size: 12px; font-weight: 200;" fill="rgb(33, 33, 33)" stroke="none" stroke-width="1px">0.018</text><text x="0" y="78.66666666666654" dx="0em" dy="0.3em" style="text-anchor: end; visibility: inherit; font-family: Roboto, sans-serif; font-size: 12px; font-weight: 200;" fill="rgb(33, 33, 33)" stroke="none" stroke-width="1px">0.0182</text><text x="0" y="59.00000000000001" dx="0em" dy="0.3em" style="text-anchor: end; visibility: hidden; font-family: Roboto, sans-serif; font-size: 12px; font-weight: 200;" fill="rgb(33, 33, 33)" stroke="none" stroke-width="1px">0.0184</text><text x="0" y="39.33333333333345" dx="0em" dy="0.3em" style="text-anchor: end; visibility: inherit; font-family: Roboto, sans-serif; font-size: 12px; font-weight: 200;" fill="rgb(33, 33, 33)" stroke="none" stroke-width="1px">0.0186</text><text x="0" y="19.666666666666558" dx="0em" dy="0.3em" style="text-anchor: end; visibility: hidden; font-family: Roboto, sans-serif; font-size: 12px; font-weight: 200;" fill="rgb(33, 33, 33)" stroke="none" stroke-width="1px">0.0188</text><text x="0" y="0" dx="0em" dy="0.3em" style="text-anchor: end; visibility: hidden; font-family: Roboto, sans-serif; font-size: 12px; font-weight: 200;" fill="rgb(33, 33, 33)" stroke="none" stroke-width="1px">0.019</text></g><line x1="70" y1="0" x2="70" y2="177" fill="rgb(0, 0, 0)" stroke="rgb(204, 204, 204)" stroke-width="1px"></line></g></g><g transform="translate(70, 0)" clip-path="url(#clip_0)"><clipPath id="clip_0"><rect width="260" height="177"></rect></clipPath><g><g><g><line x1="0" y1="0" x2="0" y2="177" fill="rgb(0, 0, 0)" stroke="rgb(66, 66, 66)" stroke-width="1px" opacity="0.25"></line><line x1="21.666666666666664" y1="0" x2="21.666666666666664" y2="177" fill="rgb(0, 0, 0)" stroke="rgb(66, 66, 66)" stroke-width="1px" opacity="0.25"></line><line x1="43.33333333333333" y1="0" x2="43.33333333333333" y2="177" fill="rgb(0, 0, 0)" stroke="rgb(66, 66, 66)" stroke-width="1px" opacity="0.25"></line><line x1="65" y1="0" x2="65" y2="177" fill="rgb(0, 0, 0)" stroke="rgb(66, 66, 66)" stroke-width="1px" opacity="0.25"></line><line x1="86.66666666666666" y1="0" x2="86.66666666666666" y2="177" fill="rgb(0, 0, 0)" stroke="rgb(66, 66, 66)" stroke-width="1px" opacity="0.25"></line><line x1="108.33333333333334" y1="0" x2="108.33333333333334" y2="177" fill="rgb(0, 0, 0)" stroke="rgb(66, 66, 66)" stroke-width="1px" opacity="0.25"></line><line x1="130" y1="0" x2="130" y2="177" fill="rgb(0, 0, 0)" stroke="rgb(66, 66, 66)" stroke-width="1px" opacity="0.25"></line><line x1="151.66666666666669" y1="0" x2="151.66666666666669" y2="177" fill="rgb(0, 0, 0)" stroke="rgb(66, 66, 66)" stroke-width="1px" opacity="0.25"></line><line x1="173.33333333333331" y1="0" x2="173.33333333333331" y2="177" fill="rgb(0, 0, 0)" stroke="rgb(66, 66, 66)" stroke-width="1px" opacity="0.25"></line><line x1="195" y1="0" x2="195" y2="177" fill="rgb(0, 0, 0)" stroke="rgb(66, 66, 66)" stroke-width="1px" opacity="0.25"></line><line x1="216.66666666666669" y1="0" x2="216.66666666666669" y2="177" fill="rgb(0, 0, 0)" stroke="rgb(66, 66, 66)" stroke-width="1px" opacity="0.25"></line><line x1="238.33333333333331" y1="0" x2="238.33333333333331" y2="177" fill="rgb(0, 0, 0)" stroke="rgb(66, 66, 66)" stroke-width="1px" opacity="0.25"></line><line x1="260" y1="0" x2="260" y2="177" fill="rgb(0, 0, 0)" stroke="rgb(66, 66, 66)" stroke-width="1px" opacity="0.25"></line></g><g><line x1="0" y1="177" x2="260" y2="177" fill="rgb(0, 0, 0)" stroke="rgb(66, 66, 66)" stroke-width="1px" opacity="0.25"></line><line x1="0" y1="157.33333333333346" x2="260" y2="157.33333333333346" fill="rgb(0, 0, 0)" stroke="rgb(66, 66, 66)" stroke-width="1px" opacity="0.25"></line><line x1="0" y1="137.66666666666654" x2="260" y2="137.66666666666654" fill="rgb(0, 0, 0)" stroke="rgb(66, 66, 66)" stroke-width="1px" opacity="0.25"></line><line x1="0" y1="118.00000000000001" x2="260" y2="118.00000000000001" fill="rgb(0, 0, 0)" stroke="rgb(66, 66, 66)" stroke-width="1px" opacity="0.25"></line><line x1="0" y1="98.33333333333346" x2="260" y2="98.33333333333346" fill="rgb(0, 0, 0)" stroke="rgb(66, 66, 66)" stroke-width="1px" opacity="0.25"></line><line x1="0" y1="78.66666666666654" x2="260" y2="78.66666666666654" fill="rgb(0, 0, 0)" stroke="rgb(66, 66, 66)" stroke-width="1px" opacity="0.25"></line><line x1="0" y1="59.00000000000001" x2="260" y2="59.00000000000001" fill="rgb(0, 0, 0)" stroke="rgb(66, 66, 66)" stroke-width="1px" opacity="0.25"></line><line x1="0" y1="39.33333333333345" x2="260" y2="39.33333333333345" fill="rgb(0, 0, 0)" stroke="rgb(66, 66, 66)" stroke-width="1px" opacity="0.25"></line><line x1="0" y1="19.666666666666558" x2="260" y2="19.666666666666558" fill="rgb(0, 0, 0)" stroke="rgb(66, 66, 66)" stroke-width="1px" opacity="0.25"></line><line x1="0" y1="0" x2="260" y2="0" fill="rgb(0, 0, 0)" stroke="rgb(66, 66, 66)" stroke-width="1px" opacity="0.25"></line></g></g></g><g><g><line x1="0" y1="1868.333333333334" x2="260" y2="1868.333333333334" fill="rgb(0, 0, 0)" stroke="rgb(153, 153, 153)" stroke-width="1.5px"></line></g></g><g><g><line x1="21.666666666666664" y1="0" x2="21.666666666666664" y2="177" fill="rgb(0, 0, 0)" stroke="rgb(153, 153, 153)" stroke-width="1.5px"></line></g></g><g><g><g><g><g><path stroke="rgb(255, 112, 67)" stroke-width="2px" d="M30.333333333333332,-67.3571892729166L32.5,26.290013125113294L34.666666666666664,78.85229355960854L36.833333333333336,108.66130787677866L39,127.5357345498211L41.166666666666664,138.748087065389L43.33333333333333,145.1474599224265L45.5,148.63936210649663L47.666666666666664,152.0263411515136L49.833333333333336,154.45163133690676L52,155.9376932643973L54.16666666666667,156.40214620447674L56.333333333333336,157.12251778854196L58.5,157.05876128914267L60.666666666666664,156.48000975603074L62.833333333333336,157.87213337101178L65,158.12176262586658L67.16666666666667,158.63500437307297L69.33333333333333,159.70533674539405L71.5,158.8144001403338L73.66666666666667,159.50218163995507L75.83333333333334,159.71337282762394L78,158.95212620530125L80.16666666666667,159.95457956183515L82.33333333333333,159.88927488496876L84.5,158.67361783911093L86.66666666666666,158.67283478326706L88.83333333333333,159.73212940945965L91,160.74867917060098L93.16666666666667,160.5566607636389L95.33333333333333,160.90352604720306L97.5,160.11935701117682L99.66666666666667,159.9953212540363L101.83333333333333,159.4550137520245L104,160.06729024588867L106.16666666666667,160.1290718195058L108.33333333333334,160.4489399680408L110.5,159.81414940061867L112.66666666666667,160.7170808780976L114.83333333333333,161.0087163231554L117,161.01189341039196L119.16666666666666,161.01782918507328L121.33333333333333,161.04659348051538L123.5,161.59684796724449L125.66666666666667,161.5847110525392L127.83333333333333,161.18766419741928L130,160.73132902971722L132.16666666666666,160.93447684601117L134.33333333333334,161.09189859641702L136.5,161.2327277855864L138.66666666666666,161.1781701463532L140.83333333333331,161.51717731464345L143,162.29204114740176L145.16666666666666,162.5184117245577L147.33333333333334,161.86598623720207L149.5,161.4138683175689L151.66666666666669,161.34106985701987L153.83333333333334,161.56333925509793L156,161.63611153076687L158.16666666666666,161.36268812007074L160.33333333333334,161.5598990674002L162.5,162.1030838184664L164.66666666666666,162.11688984790095L166.83333333333334,162.28510887041875L169,162.18896000950676L171.16666666666666,162.15918429316545L173.33333333333331,161.91661804490167L175.5,161.6635266814999L177.66666666666666,161.86993303146176L179.83333333333334,161.469426089006L182,161.92828068145747L184.16666666666669,161.8366138478634L186.33333333333334,162.08470709168014L188.5,162.3653650504932L190.66666666666666,161.8206808997742L192.83333333333334,161.95543387732224L195,162.413375690786L197.16666666666666,162.95467536561162L199.33333333333334,162.6062318836398L201.5,162.10887178707608L203.66666666666666,162.44477580941802L205.83333333333331,162.30417514417812L208,162.1283812199488L210.16666666666666,162.33134648448944L212.33333333333334,162.20578623561104L214.5,162.03857697694332L216.66666666666669,162.37307351419625L218.83333333333334,162.48365666422808L221,162.54619682403515L223.16666666666666,162.45953836782044L225.33333333333334,162.94390934950061L227.5,163.63594562756586L229.66666666666666,162.57870666750816L231.83333333333334,162.27778794905652L234,162.93523083651755L236.16666666666666,163.1194287669145" style="fill: none;" fill="none"></path></g></g></g></g><g opacity="0.2"><g><g><g><path stroke="rgb(255, 112, 67)" stroke-width="2px" d="M23.833333333333332,-51.6399171451728L26,143.90895562867323L28.166666666666668,150.75126772125563L30.333333333333332,149.1423893471559L32.5,155.83780703445274L34.666666666666664,154.01719557742277L36.833333333333336,152.12313691775003L39,155.37184772392115L41.166666666666664,155.3971238185962L43.33333333333333,154.6884773671627L45.5,153.85821260511875L47.666666666666664,157.09575064480305L49.833333333333336,158.08481521904469L52,158.16503934562206L54.16666666666667,157.09849804639816L56.333333333333336,158.20277032752833L58.5,156.96314272781214L60.666666666666664,155.61197062333423L62.833333333333336,159.96019154787064L65,158.49619281788668L67.16666666666667,159.40485010544458L69.33333333333333,161.3108141720295L71.5,157.4780057867368L73.66666666666667,160.5338490009308L75.83333333333334,160.0301587084929L78,157.81025821963945L80.16666666666667,161.45825805763403L82.33333333333333,159.7913179298242L84.5,156.8501329421997L86.66666666666666,158.6716601997614L88.83333333333333,161.3210711379846L91,162.27350369095802L93.16666666666667,160.26863316694894L95.33333333333333,161.42382395764193L97.5,158.94310347735882L99.66666666666667,159.8092676202456L101.83333333333333,158.64455250402293L104,160.98570498327413L106.16666666666667,160.22174417972565L108.33333333333334,160.9287421902021L110.5,158.86196355024973L112.66666666666667,162.07147809366384L114.83333333333333,161.44616949061552L117,161.0166590412458L119.16666666666666,161.02673284709454L121.33333333333333,161.08973992367584L123.5,162.42222969730696L125.66666666666667,161.56650568048158L127.83333333333333,160.59209391474724L130,160.04682627816996L132.16666666666666,161.23919857045016L134.33333333333334,161.32803122202554L136.5,161.44397156933942L138.66666666666666,161.0963336875041L140.83333333333331,162.0256880670786L143,163.45433689653873L145.16666666666666,162.8579675902923L147.33333333333334,160.887348006169L149.5,160.7356914381186L151.66666666666669,161.2318721661965L153.83333333333334,161.8967433522145L156,161.74526994427046L158.16666666666666,160.9525530040264L160.33333333333334,161.8557154883941L162.5,162.9178609450658L164.66666666666666,162.13759889205298L166.83333333333334,162.53743740419546L169,162.04473671813807L171.16666666666666,162.114520718654L173.33333333333331,161.552768672506L175.5,161.28388963639736L177.66666666666666,162.17954255640507L179.83333333333334,160.8686656753222L182,162.6165625701348L184.16666666666669,161.69911359747252L186.33333333333334,162.45684695740542L188.5,162.78635198871294L190.66666666666666,161.00365467369556L192.83333333333334,162.15756334364414L195,163.1002884109815L197.16666666666666,163.7666248778502L199.33333333333334,162.08356666068235L201.5,161.36283164223036L203.66666666666666,162.94863184293112L205.83333333333331,162.09327414631844L208,161.8646903336048L210.16666666666666,162.6357943813006L212.33333333333334,162.01744586229324L214.5,161.78776308894157L216.66666666666669,162.87481832007566L218.83333333333334,162.64953138927618L221,162.64000706374645L223.16666666666666,162.32955068349838L225.33333333333334,163.67046582202116L227.5,164.67400004466376L229.66666666666666,160.99284822742143L231.83333333333334,161.82640987137952L234,163.9213951677084L236.16666666666666,163.3957256625096" style="fill: none;" fill="none"></path></g></g></g></g></g></g><g transform="translate(70, 177)" clip-path="url(#clip_1)"><clipPath id="clip_1"><rect width="260" height="23"></rect></clipPath><g><g><line x1="0" y1="0" x2="0" y2="5" style="visibility: inherit;" fill="rgb(0, 0, 0)" stroke="rgb(204, 204, 204)" stroke-width="1px"></line><line x1="21.666666666666664" y1="0" x2="21.666666666666664" y2="5" style="visibility: inherit;" fill="rgb(0, 0, 0)" stroke="rgb(204, 204, 204)" stroke-width="1px"></line><line x1="43.33333333333333" y1="0" x2="43.33333333333333" y2="5" style="visibility: inherit;" fill="rgb(0, 0, 0)" stroke="rgb(204, 204, 204)" stroke-width="1px"></line><line x1="65" y1="0" x2="65" y2="5" style="visibility: inherit;" fill="rgb(0, 0, 0)" stroke="rgb(204, 204, 204)" stroke-width="1px"></line><line x1="86.66666666666666" y1="0" x2="86.66666666666666" y2="5" style="visibility: inherit;" fill="rgb(0, 0, 0)" stroke="rgb(204, 204, 204)" stroke-width="1px"></line><line x1="108.33333333333334" y1="0" x2="108.33333333333334" y2="5" style="visibility: inherit;" fill="rgb(0, 0, 0)" stroke="rgb(204, 204, 204)" stroke-width="1px"></line><line x1="130" y1="0" x2="130" y2="5" style="visibility: inherit;" fill="rgb(0, 0, 0)" stroke="rgb(204, 204, 204)" stroke-width="1px"></line><line x1="151.66666666666669" y1="0" x2="151.66666666666669" y2="5" style="visibility: inherit;" fill="rgb(0, 0, 0)" stroke="rgb(204, 204, 204)" stroke-width="1px"></line><line x1="173.33333333333331" y1="0" x2="173.33333333333331" y2="5" style="visibility: inherit;" fill="rgb(0, 0, 0)" stroke="rgb(204, 204, 204)" stroke-width="1px"></line><line x1="195" y1="0" x2="195" y2="5" style="visibility: inherit;" fill="rgb(0, 0, 0)" stroke="rgb(204, 204, 204)" stroke-width="1px"></line><line x1="216.66666666666669" y1="0" x2="216.66666666666669" y2="5" style="visibility: inherit;" fill="rgb(0, 0, 0)" stroke="rgb(204, 204, 204)" stroke-width="1px"></line><line x1="238.33333333333331" y1="0" x2="238.33333333333331" y2="5" style="visibility: inherit;" fill="rgb(0, 0, 0)" stroke="rgb(204, 204, 204)" stroke-width="1px"></line><line x1="260" y1="0" x2="260" y2="5" style="visibility: inherit;" fill="rgb(0, 0, 0)" stroke="rgb(204, 204, 204)" stroke-width="1px"></line></g><g transform="translate(0, 8)"><text x="0" y="0" dx="0em" dy="0.95em" style="text-anchor: middle; visibility: hidden; font-family: Roboto, sans-serif; font-size: 12px; font-weight: 200;" fill="rgb(33, 33, 33)" stroke="none" stroke-width="1px">-10</text><text x="21.666666666666664" y="0" dx="0em" dy="0.95em" style="text-anchor: middle; visibility: inherit; font-family: Roboto, sans-serif; font-size: 12px; font-weight: 200;" fill="rgb(33, 33, 33)" stroke="none" stroke-width="1px">0</text><text x="43.33333333333333" y="0" dx="0em" dy="0.95em" style="text-anchor: middle; visibility: inherit; font-family: Roboto, sans-serif; font-size: 12px; font-weight: 200;" fill="rgb(33, 33, 33)" stroke="none" stroke-width="1px">10</text><text x="65" y="0" dx="0em" dy="0.95em" style="text-anchor: middle; visibility: inherit; font-family: Roboto, sans-serif; font-size: 12px; font-weight: 200;" fill="rgb(33, 33, 33)" stroke="none" stroke-width="1px">20</text><text x="86.66666666666666" y="0" dx="0em" dy="0.95em" style="text-anchor: middle; visibility: inherit; font-family: Roboto, sans-serif; font-size: 12px; font-weight: 200;" fill="rgb(33, 33, 33)" stroke="none" stroke-width="1px">30</text><text x="108.33333333333334" y="0" dx="0em" dy="0.95em" style="text-anchor: middle; visibility: inherit; font-family: Roboto, sans-serif; font-size: 12px; font-weight: 200;" fill="rgb(33, 33, 33)" stroke="none" stroke-width="1px">40</text><text x="130" y="0" dx="0em" dy="0.95em" style="text-anchor: middle; visibility: inherit; font-family: Roboto, sans-serif; font-size: 12px; font-weight: 200;" fill="rgb(33, 33, 33)" stroke="none" stroke-width="1px">50</text><text x="151.66666666666669" y="0" dx="0em" dy="0.95em" style="text-anchor: middle; visibility: inherit; font-family: Roboto, sans-serif; font-size: 12px; font-weight: 200;" fill="rgb(33, 33, 33)" stroke="none" stroke-width="1px">60</text><text x="173.33333333333331" y="0" dx="0em" dy="0.95em" style="text-anchor: middle; visibility: inherit; font-family: Roboto, sans-serif; font-size: 12px; font-weight: 200;" fill="rgb(33, 33, 33)" stroke="none" stroke-width="1px">70</text><text x="195" y="0" dx="0em" dy="0.95em" style="text-anchor: middle; visibility: inherit; font-family: Roboto, sans-serif; font-size: 12px; font-weight: 200;" fill="rgb(33, 33, 33)" stroke="none" stroke-width="1px">80</text><text x="216.66666666666669" y="0" dx="0em" dy="0.95em" style="text-anchor: middle; visibility: inherit; font-family: Roboto, sans-serif; font-size: 12px; font-weight: 200;" fill="rgb(33, 33, 33)" stroke="none" stroke-width="1px">90</text><text x="238.33333333333331" y="0" dx="0em" dy="0.95em" style="text-anchor: middle; visibility: inherit; font-family: Roboto, sans-serif; font-size: 12px; font-weight: 200;" fill="rgb(33, 33, 33)" stroke="none" stroke-width="1px">100</text><text x="260" y="0" dx="0em" dy="0.95em" style="text-anchor: middle; visibility: hidden; font-family: Roboto, sans-serif; font-size: 12px; font-weight: 200;" fill="rgb(33, 33, 33)" stroke="none" stroke-width="1px">110</text></g><line x1="0" y1="0" x2="260" y2="0" fill="rgb(0, 0, 0)" stroke="rgb(204, 204, 204)" stroke-width="1px"></line></g></g></g></g></svg>