<svg viewBox="0 0 330 200" xmlns="http://www.w3.org/2000/svg"><g><g><g><g><g><line x1="70" y1="177" x2="65" y2="177" style="visibility: inherit;" fill="rgb(0, 0, 0)" stroke="rgb(204, 204, 204)" stroke-width="1px"></line><line x1="70" y1="159.29999999999998" x2="65" y2="159.29999999999998" style="visibility: inherit;" fill="rgb(0, 0, 0)" stroke="rgb(204, 204, 204)" stroke-width="1px"></line><line x1="70" y1="141.59999999999997" x2="65" y2="141.59999999999997" style="visibility: inherit;" fill="rgb(0, 0, 0)" stroke="rgb(204, 204, 204)" stroke-width="1px"></line><line x1="70" y1="123.89999999999999" x2="65" y2="123.89999999999999" style="visibility: inherit;" fill="rgb(0, 0, 0)" stroke="rgb(204, 204, 204)" stroke-width="1px"></line><line x1="70" y1="106.2" x2="65" y2="106.2" style="visibility: inherit;" fill="rgb(0, 0, 0)" stroke="rgb(204, 204, 204)" stroke-width="1px"></line><line x1="70" y1="88.49999999999999" x2="65" y2="88.49999999999999" style="visibility: inherit;" fill="rgb(0, 0, 0)" stroke="rgb(204, 204, 204)" stroke-width="1px"></line><line x1="70" y1="70.79999999999997" x2="65" y2="70.79999999999997" style="visibility: inherit;" fill="rgb(0, 0, 0)" stroke="rgb(204, 204, 204)" stroke-width="1px"></line><line x1="70" y1="53.09999999999999" x2="65" y2="53.09999999999999" style="visibility: inherit;" fill="rgb(0, 0, 0)" stroke="rgb(204, 204, 204)" stroke-width="1px"></line><line x1="70" y1="35.399999999999956" x2="65" y2="35.399999999999956" style="visibility: inherit;" fill="rgb(0, 0, 0)" stroke="rgb(204, 204, 204)" stroke-width="1px"></line><line x1="70" y1="17.699999999999978" x2="65" y2="17.699999999999978" style="visibility: inherit;" fill="rgb(0, 0, 0)" stroke="rgb(204, 204, 204)" stroke-width="1px"></line></g><g transform="translate(60, 0)"><text x="0" y="177" dx="0em" dy="0.3em" style="text-anchor: end; visibility: hidden; font-family: Roboto, sans-serif; font-size: 12px; font-weight: 200;" fill="rgb(33, 33, 33)" stroke="none" stroke-width="1px">2.8e-3</text><text x="0" y="159.29999999999998" dx="0em" dy="0.3em" style="text-anchor: end; visibility: inherit; font-family: Roboto, sans-serif; font-size: 12px; font-weight: 200;" fill="rgb(33, 33, 33)" stroke="none" stroke-width="1px">3e-3</text><text x="0" y="141.59999999999997" dx="0em" dy="0.3em" style="text-anchor: end; visibility: hidden; font-family: Roboto, sans-serif; font-size: 12px; font-weight: 200;" fill="rgb(33, 33, 33)" stroke="none" stroke-width="1px">3.2e-3</text><text x="0" y="123.89999999999999" dx="0em" dy="0.3em" style="text-anchor: end; visibility: inherit; font-family: Roboto, sans-serif; font-size: 12px; font-weight: 200;" fill="rgb(33, 33, 33)" stroke="none" stroke-width="1px">3.4e-3</text><text x="0" y="106.2" dx="0em" dy="0.3em" style="text-anchor: end; visibility: hidden; font-family: Roboto, sans-serif; font-size: 12px; font-weight: 200;" fill="rgb(33, 33, 33)" stroke="none" stroke-width="1px">3.6e-3</text><text x="0" y="88.49999999999999" dx="0em" dy="0.3em" style="text-anchor: end; visibility: inherit; font-family: Roboto, sans-serif; font-size: 12px; font-weight: 200;" fill="rgb(33, 33, 33)" stroke="none" stroke-width="1px">3.8e-3</text><text x="0" y="70.79999999999997" dx="0em" dy="0.3em" style="text-anchor: end; visibility: hidden; font-family: Roboto, sans-serif; font-size: 12px; font-weight: 200;" fill="rgb(33, 33, 33)" stroke="none" stroke-width="1px">4e-3</text><text x="0" y="53.09999999999999" dx="0em" dy="0.3em" style="text-anchor: end; visibility: inherit; font-family: Roboto, sans-serif; font-size: 12px; font-weight: 200;" fill="rgb(33, 33, 33)" stroke="none" stroke-width="1px">4.2e-3</text><text x="0" y="35.399999999999956" dx="0em" dy="0.3em" style="text-anchor: end; visibility: hidden; font-family: Roboto, sans-serif; font-size: 12px; font-weight: 200;" fill="rgb(33, 33, 33)" stroke="none" stroke-width="1px">4.4e-3</text><text x="0" y="17.699999999999978" dx="0em" dy="0.3em" style="text-anchor: end; visibility: inherit; font-family: Roboto, sans-serif; font-size: 12px; font-weight: 200;" fill="rgb(33, 33, 33)" stroke="none" stroke-width="1px">4.6e-3</text></g><line x1="70" y1="0" x2="70" y2="177" fill="rgb(0, 0, 0)" stroke="rgb(204, 204, 204)" stroke-width="1px"></line></g></g><g transform="translate(70, 0)" clip-path="url(#clip_0)"><clipPath id="clip_0"><rect width="260" height="177"></rect></clipPath><g><g><g><line x1="0" y1="0" x2="0" y2="177" fill="rgb(0, 0, 0)" stroke="rgb(66, 66, 66)" stroke-width="1px" opacity="0.25"></line><line x1="21.666666666666664" y1="0" x2="21.666666666666664" y2="177" fill="rgb(0, 0, 0)" stroke="rgb(66, 66, 66)" stroke-width="1px" opacity="0.25"></line><line x1="43.33333333333333" y1="0" x2="43.33333333333333" y2="177" fill="rgb(0, 0, 0)" stroke="rgb(66, 66, 66)" stroke-width="1px" opacity="0.25"></line><line x1="65" y1="0" x2="65" y2="177" fill="rgb(0, 0, 0)" stroke="rgb(66, 66, 66)" stroke-width="1px" opacity="0.25"></line><line x1="86.66666666666666" y1="0" x2="86.66666666666666" y2="177" fill="rgb(0, 0, 0)" stroke="rgb(66, 66, 66)" stroke-width="1px" opacity="0.25"></line><line x1="108.33333333333334" y1="0" x2="108.33333333333334" y2="177" fill="rgb(0, 0, 0)" stroke="rgb(66, 66, 66)" stroke-width="1px" opacity="0.25"></line><line x1="130" y1="0" x2="130" y2="177" fill="rgb(0, 0, 0)" stroke="rgb(66, 66, 66)" stroke-width="1px" opacity="0.25"></line><line x1="151.66666666666669" y1="0" x2="151.66666666666669" y2="177" fill="rgb(0, 0, 0)" stroke="rgb(66, 66, 66)" stroke-width="1px" opacity="0.25"></line><line x1="173.33333333333331" y1="0" x2="173.33333333333331" y2="177" fill="rgb(0, 0, 0)" stroke="rgb(66, 66, 66)" stroke-width="1px" opacity="0.25"></line><line x1="195" y1="0" x2="195" y2="177" fill="rgb(0, 0, 0)" stroke="rgb(66, 66, 66)" stroke-width="1px" opacity="0.25"></line><line x1="216.66666666666669" y1="0" x2="216.66666666666669" y2="177" fill="rgb(0, 0, 0)" stroke="rgb(66, 66, 66)" stroke-width="1px" opacity="0.25"></line><line x1="238.33333333333331" y1="0" x2="238.33333333333331" y2="177" fill="rgb(0, 0, 0)" stroke="rgb(66, 66, 66)" stroke-width="1px" opacity="0.25"></line><line x1="260" y1="0" x2="260" y2="177" fill="rgb(0, 0, 0)" stroke="rgb(66, 66, 66)" stroke-width="1px" opacity="0.25"></line></g><g><line x1="0" y1="177" x2="260" y2="177" fill="rgb(0, 0, 0)" stroke="rgb(66, 66, 66)" stroke-width="1px" opacity="0.25"></line><line x1="0" y1="159.29999999999998" x2="260" y2="159.29999999999998" fill="rgb(0, 0, 0)" stroke="rgb(66, 66, 66)" stroke-width="1px" opacity="0.25"></line><line x1="0" y1="141.59999999999997" x2="260" y2="141.59999999999997" fill="rgb(0, 0, 0)" stroke="rgb(66, 66, 66)" stroke-width="1px" opacity="0.25"></line><line x1="0" y1="123.89999999999999" x2="260" y2="123.89999999999999" fill="rgb(0, 0, 0)" stroke="rgb(66, 66, 66)" stroke-width="1px" opacity="0.25"></line><line x1="0" y1="106.2" x2="260" y2="106.2" fill="rgb(0, 0, 0)" stroke="rgb(66, 66, 66)" stroke-width="1px" opacity="0.25"></line><line x1="0" y1="88.49999999999999" x2="260" y2="88.49999999999999" fill="rgb(0, 0, 0)" stroke="rgb(66, 66, 66)" stroke-width="1px" opacity="0.25"></line><line x1="0" y1="70.79999999999997" x2="260" y2="70.79999999999997" fill="rgb(0, 0, 0)" stroke="rgb(66, 66, 66)" stroke-width="1px" opacity="0.25"></line><line x1="0" y1="53.09999999999999" x2="260" y2="53.09999999999999" fill="rgb(0, 0, 0)" stroke="rgb(66, 66, 66)" stroke-width="1px" opacity="0.25"></line><line x1="0" y1="35.399999999999956" x2="260" y2="35.399999999999956" fill="rgb(0, 0, 0)" stroke="rgb(66, 66, 66)" stroke-width="1px" opacity="0.25"></line><line x1="0" y1="17.699999999999978" x2="260" y2="17.699999999999978" fill="rgb(0, 0, 0)" stroke="rgb(66, 66, 66)" stroke-width="1px" opacity="0.25"></line></g></g></g><g><g><line x1="0" y1="424.80000000000007" x2="260" y2="424.80000000000007" fill="rgb(0, 0, 0)" stroke="rgb(153, 153, 153)" stroke-width="1.5px"></line></g></g><g><g><line x1="21.666666666666664" y1="0" x2="21.666666666666664" y2="177" fill="rgb(0, 0, 0)" stroke="rgb(153, 153, 153)" stroke-width="1.5px"></line></g></g><g><g><g><g><g><path stroke="rgb(255, 112, 67)" stroke-width="2px" d="M30.333333333333332,-58.331468482913394L32.5,18.636971581904067L34.666666666666664,63.95489860242258L36.833333333333336,92.19384416736774L39,109.43866312795237L41.166666666666664,120.71120008656129L43.33333333333333,127.66109843168992L45.5,131.96126878465762L47.666666666666664,134.5934321602819L49.833333333333336,136.96167459637263L52,138.63196421552547L54.16666666666667,139.7313164235557L56.333333333333336,141.0210431367742L58.5,141.03807764101418L60.666666666666664,141.33254698933388L62.833333333333336,142.06171230075L65,142.35419437774172L67.16666666666667,142.53466611706676L69.33333333333333,143.1191942361594L71.5,143.6646229217178L73.66666666666667,144.06994886468394L75.83333333333334,144.48759849703092L78,144.4667634968944L80.16666666666667,144.7381819130543L82.33333333333333,145.05978602094146L84.5,145.28168679723439L86.66666666666666,145.4043678723541L88.83333333333333,145.64387561813402L91,146.08082142925844L93.16666666666667,146.21325659554117L95.33333333333333,146.2356981191971L97.5,146.73715925690325L99.66666666666667,147.08281583509253L101.83333333333333,147.10852685987902L104,146.77705555891131L106.16666666666667,147.28416707284075L108.33333333333334,147.80320935323334L110.5,148.30173276991988L112.66666666666667,148.4853900151118L114.83333333333333,149.11806596583142L117,149.63041224427494L119.16666666666666,149.42350643266923L121.33333333333333,149.26551221065932L123.5,149.48472719537637L125.66666666666667,149.64861508219116L127.83333333333333,149.87830383194378L130,149.55217985883436L132.16666666666666,149.56877521701207L134.33333333333334,149.67095446126206L136.5,149.9003782588189L138.66666666666666,150.32967471147774L140.83333333333331,150.8192624055757L143,150.72989261699698L145.16666666666666,151.2056345883935L147.33333333333334,151.23031289623256L149.5,151.6508588959043L151.66666666666669,151.5541538496622L153.83333333333334,151.4213657823091L156,152.191406559833L158.16666666666666,152.20709915281122L160.33333333333334,152.07450152014664L162.5,152.29405255220814L164.66666666666666,152.316697591111L166.83333333333334,152.0513766467213L169,152.6280893343472L171.16666666666666,152.77606500813562L173.33333333333331,152.6938823585462L175.5,153.0719310869128L177.66666666666666,153.00612908523382L179.83333333333334,153.03079696407084L182,153.27810204616287L184.16666666666669,153.52966925712585L186.33333333333334,153.1180049272606L188.5,153.49039153455072L190.66666666666666,153.47264834470073L192.83333333333334,153.9020372598709L195,153.79575254108556L197.16666666666666,154.19269623070088L199.33333333333334,154.29503090960756L201.5,153.8852660803972L203.66666666666666,154.34008525387813L205.83333333333331,153.87956889175695L208,154.41011322753621L210.16666666666666,154.69353409173786L212.33333333333334,154.75037168532728L214.5,154.55654431034696L216.66666666666669,155.0651141567503L218.83333333333334,154.84033175012314L221,154.9809167900732L223.16666666666666,154.48254393571915L225.33333333333334,154.85096572441935L227.5,154.82481034951255L229.66666666666666,154.88366786685197L231.83333333333334,155.2110778726435L234,155.19119072711746L236.16666666666666,155.10922442574073" style="fill: none;" fill="none"></path></g></g></g></g><g opacity="0.2"><g><g><g><path stroke="rgb(255, 112, 67)" stroke-width="2px" d="M21.666666666666664,-2664.431103658677L23.833333333333332,7.776211560890043L26,75.95910884924231L28.166666666666668,104.1536926852539L30.333333333333332,119.3040808059275L32.5,125.1120328299701L34.666666666666664,128.76025932859628L36.833333333333336,133.3664978949353L39,134.87142146117984L41.166666666666664,137.44960372354834L43.33333333333333,138.0229108829051L45.5,138.38812297694383L47.666666666666664,138.53308275360612L49.833333333333336,140.50939861703662L52,141.13543528150765L54.16666666666667,141.37956938724963L56.333333333333336,142.95508743748067L58.5,141.06362507231532L60.666666666666664,141.77420615237205L62.833333333333336,143.15539361927657L65,142.792901452817L67.16666666666667,142.80536778755484L69.33333333333333,143.99597487431018L71.5,144.48275948893277L73.66666666666667,144.6779348982498L75.83333333333334,145.11407116446642L78,144.43551105000077L80.16666666666667,145.1453091206029L82.33333333333333,145.5421918865293L84.5,145.6145378390327L86.66666666666666,145.58838944435118L88.83333333333333,146.00313718914984L91,146.73624009378253L93.16666666666667,146.41190933547912L95.33333333333333,146.26936040371655L97.5,147.48935095053164L99.66666666666667,147.60130069702862L101.83333333333333,147.1470933968201L104,146.2798486093059L106.16666666666667,148.0448343420401L108.33333333333334,148.58177277278153L110.5,149.04951789434998L112.66666666666667,148.76087588276712L114.83333333333333,150.06707989163695L117,150.39893166180698L119.16666666666666,149.11314771529285L121.33333333333333,149.0285208776593L123.5,149.81354967243968L125.66666666666667,149.89444691240786L127.83333333333333,150.22283695656805L130,149.06299389917402L132.16666666666666,149.59366825427858L134.33333333333334,149.8242233276367L136.5,150.2445139551535L138.66666666666666,150.9736193904653L140.83333333333331,151.55364394672213L143,150.59583793412892L145.16666666666666,151.91924754548816L147.33333333333334,151.26733035799114L149.5,152.28167789541183L151.66666666666669,151.4090962802991L153.83333333333334,151.2221836812794L156,153.34646772611885L158.16666666666666,152.23063804227857L160.33333333333334,151.87560507114975L162.5,152.62337910030035L164.66666666666666,152.3506651494652L166.83333333333334,151.6533952301368L169,153.49315836578606L171.16666666666666,152.9980285188183L173.33333333333331,152.57060838416217L175.5,153.63900417946277L177.66666666666666,152.90742608271538L179.83333333333334,153.06779878232626L182,153.6490596693009L184.16666666666669,153.9070200735703L186.33333333333334,152.5005084324628L188.5,154.04897144548593L190.66666666666666,153.44603355992584L192.83333333333334,154.5461206326261L195,153.63632546290754L197.16666666666666,154.7881117651239L199.33333333333334,154.4485329279676L201.5,153.2706188365817L203.66666666666666,155.02231401409952L205.83333333333331,153.18879434857516L208,155.2059297312051L210.16666666666666,155.11866538804023L212.33333333333334,154.8356280757114L214.5,154.26580324787645L216.66666666666669,155.82796892635523L218.83333333333334,154.50315814018248L221,155.19179434999822L223.16666666666666,153.73498465418814L225.33333333333334,155.40359840746967L227.5,154.7855772871524L229.66666666666666,154.97195414286105L231.83333333333334,155.70219288133083L234,155.16136000882832L236.16666666666666,154.9862749736756" style="fill: none;" fill="none"></path></g></g></g></g></g></g><g transform="translate(70, 177)" clip-path="url(#clip_1)"><clipPath id="clip_1"><rect width="260" height="23"></rect></clipPath><g><g><line x1="0" y1="0" x2="0" y2="5" style="visibility: inherit;" fill="rgb(0, 0, 0)" stroke="rgb(204, 204, 204)" stroke-width="1px"></line><line x1="21.666666666666664" y1="0" x2="21.666666666666664" y2="5" style="visibility: inherit;" fill="rgb(0, 0, 0)" stroke="rgb(204, 204, 204)" stroke-width="1px"></line><line x1="43.33333333333333" y1="0" x2="43.33333333333333" y2="5" style="visibility: inherit;" fill="rgb(0, 0, 0)" stroke="rgb(204, 204, 204)" stroke-width="1px"></line><line x1="65" y1="0" x2="65" y2="5" style="visibility: inherit;" fill="rgb(0, 0, 0)" stroke="rgb(204, 204, 204)" stroke-width="1px"></line><line x1="86.66666666666666" y1="0" x2="86.66666666666666" y2="5" style="visibility: inherit;" fill="rgb(0, 0, 0)" stroke="rgb(204, 204, 204)" stroke-width="1px"></line><line x1="108.33333333333334" y1="0" x2="108.33333333333334" y2="5" style="visibility: inherit;" fill="rgb(0, 0, 0)" stroke="rgb(204, 204, 204)" stroke-width="1px"></line><line x1="130" y1="0" x2="130" y2="5" style="visibility: inherit;" fill="rgb(0, 0, 0)" stroke="rgb(204, 204, 204)" stroke-width="1px"></line><line x1="151.66666666666669" y1="0" x2="151.66666666666669" y2="5" style="visibility: inherit;" fill="rgb(0, 0, 0)" stroke="rgb(204, 204, 204)" stroke-width="1px"></line><line x1="173.33333333333331" y1="0" x2="173.33333333333331" y2="5" style="visibility: inherit;" fill="rgb(0, 0, 0)" stroke="rgb(204, 204, 204)" stroke-width="1px"></line><line x1="195" y1="0" x2="195" y2="5" style="visibility: inherit;" fill="rgb(0, 0, 0)" stroke="rgb(204, 204, 204)" stroke-width="1px"></line><line x1="216.66666666666669" y1="0" x2="216.66666666666669" y2="5" style="visibility: inherit;" fill="rgb(0, 0, 0)" stroke="rgb(204, 204, 204)" stroke-width="1px"></line><line x1="238.33333333333331" y1="0" x2="238.33333333333331" y2="5" style="visibility: inherit;" fill="rgb(0, 0, 0)" stroke="rgb(204, 204, 204)" stroke-width="1px"></line><line x1="260" y1="0" x2="260" y2="5" style="visibility: inherit;" fill="rgb(0, 0, 0)" stroke="rgb(204, 204, 204)" stroke-width="1px"></line></g><g transform="translate(0, 8)"><text x="0" y="0" dx="0em" dy="0.95em" style="text-anchor: middle; visibility: hidden; font-family: Roboto, sans-serif; font-size: 12px; font-weight: 200;" fill="rgb(33, 33, 33)" stroke="none" stroke-width="1px">-10</text><text x="21.666666666666664" y="0" dx="0em" dy="0.95em" style="text-anchor: middle; visibility: inherit; font-family: Roboto, sans-serif; font-size: 12px; font-weight: 200;" fill="rgb(33, 33, 33)" stroke="none" stroke-width="1px">0</text><text x="43.33333333333333" y="0" dx="0em" dy="0.95em" style="text-anchor: middle; visibility: inherit; font-family: Roboto, sans-serif; font-size: 12px; font-weight: 200;" fill="rgb(33, 33, 33)" stroke="none" stroke-width="1px">10</text><text x="65" y="0" dx="0em" dy="0.95em" style="text-anchor: middle; visibility: inherit; font-family: Roboto, sans-serif; font-size: 12px; font-weight: 200;" fill="rgb(33, 33, 33)" stroke="none" stroke-width="1px">20</text><text x="86.66666666666666" y="0" dx="0em" dy="0.95em" style="text-anchor: middle; visibility: inherit; font-family: Roboto, sans-serif; font-size: 12px; font-weight: 200;" fill="rgb(33, 33, 33)" stroke="none" stroke-width="1px">30</text><text x="108.33333333333334" y="0" dx="0em" dy="0.95em" style="text-anchor: middle; visibility: inherit; font-family: Roboto, sans-serif; font-size: 12px; font-weight: 200;" fill="rgb(33, 33, 33)" stroke="none" stroke-width="1px">40</text><text x="130" y="0" dx="0em" dy="0.95em" style="text-anchor: middle; visibility: inherit; font-family: Roboto, sans-serif; font-size: 12px; font-weight: 200;" fill="rgb(33, 33, 33)" stroke="none" stroke-width="1px">50</text><text x="151.66666666666669" y="0" dx="0em" dy="0.95em" style="text-anchor: middle; visibility: inherit; font-family: Roboto, sans-serif; font-size: 12px; font-weight: 200;" fill="rgb(33, 33, 33)" stroke="none" stroke-width="1px">60</text><text x="173.33333333333331" y="0" dx="0em" dy="0.95em" style="text-anchor: middle; visibility: inherit; font-family: Roboto, sans-serif; font-size: 12px; font-weight: 200;" fill="rgb(33, 33, 33)" stroke="none" stroke-width="1px">70</text><text x="195" y="0" dx="0em" dy="0.95em" style="text-anchor: middle; visibility: inherit; font-family: Roboto, sans-serif; font-size: 12px; font-weight: 200;" fill="rgb(33, 33, 33)" stroke="none" stroke-width="1px">80</text><text x="216.66666666666669" y="0" dx="0em" dy="0.95em" style="text-anchor: middle; visibility: inherit; font-family: Roboto, sans-serif; font-size: 12px; font-weight: 200;" fill="rgb(33, 33, 33)" stroke="none" stroke-width="1px">90</text><text x="238.33333333333331" y="0" dx="0em" dy="0.95em" style="text-anchor: middle; visibility: inherit; font-family: Roboto, sans-serif; font-size: 12px; font-weight: 200;" fill="rgb(33, 33, 33)" stroke="none" stroke-width="1px">100</text><text x="260" y="0" dx="0em" dy="0.95em" style="text-anchor: middle; visibility: hidden; font-family: Roboto, sans-serif; font-size: 12px; font-weight: 200;" fill="rgb(33, 33, 33)" stroke="none" stroke-width="1px">110</text></g><line x1="0" y1="0" x2="260" y2="0" fill="rgb(0, 0, 0)" stroke="rgb(204, 204, 204)" stroke-width="1px"></line></g></g></g></g></svg>