<svg viewBox="0 0 330 200" xmlns="http://www.w3.org/2000/svg"><g><g><g><g><g><line x1="70" y1="177" x2="65" y2="177" style="visibility: inherit;" fill="rgb(0, 0, 0)" stroke="rgb(204, 204, 204)" stroke-width="1px"></line><line x1="70" y1="154.87499999999997" x2="65" y2="154.87499999999997" style="visibility: inherit;" fill="rgb(0, 0, 0)" stroke="rgb(204, 204, 204)" stroke-width="1px"></line><line x1="70" y1="132.75000000000003" x2="65" y2="132.75000000000003" style="visibility: inherit;" fill="rgb(0, 0, 0)" stroke="rgb(204, 204, 204)" stroke-width="1px"></line><line x1="70" y1="110.62500000000001" x2="65" y2="110.62500000000001" style="visibility: inherit;" fill="rgb(0, 0, 0)" stroke="rgb(204, 204, 204)" stroke-width="1px"></line><line x1="70" y1="88.5" x2="65" y2="88.5" style="visibility: inherit;" fill="rgb(0, 0, 0)" stroke="rgb(204, 204, 204)" stroke-width="1px"></line><line x1="70" y1="66.37499999999999" x2="65" y2="66.37499999999999" style="visibility: inherit;" fill="rgb(0, 0, 0)" stroke="rgb(204, 204, 204)" stroke-width="1px"></line><line x1="70" y1="44.25000000000004" x2="65" y2="44.25000000000004" style="visibility: inherit;" fill="rgb(0, 0, 0)" stroke="rgb(204, 204, 204)" stroke-width="1px"></line><line x1="70" y1="22.12500000000002" x2="65" y2="22.12500000000002" style="visibility: inherit;" fill="rgb(0, 0, 0)" stroke="rgb(204, 204, 204)" stroke-width="1px"></line><line x1="70" y1="0" x2="65" y2="0" style="visibility: inherit;" fill="rgb(0, 0, 0)" stroke="rgb(204, 204, 204)" stroke-width="1px"></line></g><g transform="translate(60, 0)"><text x="0" y="177" dx="0em" dy="0.3em" style="text-anchor: end; visibility: hidden; font-family: Roboto, sans-serif; font-size: 12px; font-weight: 200;" fill="rgb(33, 33, 33)" stroke="none" stroke-width="1px">8e-3</text><text x="0" y="154.87499999999997" dx="0em" dy="0.3em" style="text-anchor: end; visibility: inherit; font-family: Roboto, sans-serif; font-size: 12px; font-weight: 200;" fill="rgb(33, 33, 33)" stroke="none" stroke-width="1px">8.5e-3</text><text x="0" y="132.75000000000003" dx="0em" dy="0.3em" style="text-anchor: end; visibility: hidden; font-family: Roboto, sans-serif; font-size: 12px; font-weight: 200;" fill="rgb(33, 33, 33)" stroke="none" stroke-width="1px">9e-3</text><text x="0" y="110.62500000000001" dx="0em" dy="0.3em" style="text-anchor: end; visibility: inherit; font-family: Roboto, sans-serif; font-size: 12px; font-weight: 200;" fill="rgb(33, 33, 33)" stroke="none" stroke-width="1px">9.5e-3</text><text x="0" y="88.5" dx="0em" dy="0.3em" style="text-anchor: end; visibility: hidden; font-family: Roboto, sans-serif; font-size: 12px; font-weight: 200;" fill="rgb(33, 33, 33)" stroke="none" stroke-width="1px">0.01</text><text x="0" y="66.37499999999999" dx="0em" dy="0.3em" style="text-anchor: end; visibility: inherit; font-family: Roboto, sans-serif; font-size: 12px; font-weight: 200;" fill="rgb(33, 33, 33)" stroke="none" stroke-width="1px">0.0105</text><text x="0" y="44.25000000000004" dx="0em" dy="0.3em" style="text-anchor: end; visibility: hidden; font-family: Roboto, sans-serif; font-size: 12px; font-weight: 200;" fill="rgb(33, 33, 33)" stroke="none" stroke-width="1px">0.011</text><text x="0" y="22.12500000000002" dx="0em" dy="0.3em" style="text-anchor: end; visibility: inherit; font-family: Roboto, sans-serif; font-size: 12px; font-weight: 200;" fill="rgb(33, 33, 33)" stroke="none" stroke-width="1px">0.0115</text><text x="0" y="0" dx="0em" dy="0.3em" style="text-anchor: end; visibility: hidden; font-family: Roboto, sans-serif; font-size: 12px; font-weight: 200;" fill="rgb(33, 33, 33)" stroke="none" stroke-width="1px">0.012</text></g><line x1="70" y1="0" x2="70" y2="177" fill="rgb(0, 0, 0)" stroke="rgb(204, 204, 204)" stroke-width="1px"></line></g></g><g transform="translate(70, 0)" clip-path="url(#clip_0)"><clipPath id="clip_0"><rect width="260" height="177"></rect></clipPath><g><g><g><line x1="0" y1="0" x2="0" y2="177" fill="rgb(0, 0, 0)" stroke="rgb(66, 66, 66)" stroke-width="1px" opacity="0.25"></line><line x1="21.666666666666664" y1="0" x2="21.666666666666664" y2="177" fill="rgb(0, 0, 0)" stroke="rgb(66, 66, 66)" stroke-width="1px" opacity="0.25"></line><line x1="43.33333333333333" y1="0" x2="43.33333333333333" y2="177" fill="rgb(0, 0, 0)" stroke="rgb(66, 66, 66)" stroke-width="1px" opacity="0.25"></line><line x1="65" y1="0" x2="65" y2="177" fill="rgb(0, 0, 0)" stroke="rgb(66, 66, 66)" stroke-width="1px" opacity="0.25"></line><line x1="86.66666666666666" y1="0" x2="86.66666666666666" y2="177" fill="rgb(0, 0, 0)" stroke="rgb(66, 66, 66)" stroke-width="1px" opacity="0.25"></line><line x1="108.33333333333334" y1="0" x2="108.33333333333334" y2="177" fill="rgb(0, 0, 0)" stroke="rgb(66, 66, 66)" stroke-width="1px" opacity="0.25"></line><line x1="130" y1="0" x2="130" y2="177" fill="rgb(0, 0, 0)" stroke="rgb(66, 66, 66)" stroke-width="1px" opacity="0.25"></line><line x1="151.66666666666669" y1="0" x2="151.66666666666669" y2="177" fill="rgb(0, 0, 0)" stroke="rgb(66, 66, 66)" stroke-width="1px" opacity="0.25"></line><line x1="173.33333333333331" y1="0" x2="173.33333333333331" y2="177" fill="rgb(0, 0, 0)" stroke="rgb(66, 66, 66)" stroke-width="1px" opacity="0.25"></line><line x1="195" y1="0" x2="195" y2="177" fill="rgb(0, 0, 0)" stroke="rgb(66, 66, 66)" stroke-width="1px" opacity="0.25"></line><line x1="216.66666666666669" y1="0" x2="216.66666666666669" y2="177" fill="rgb(0, 0, 0)" stroke="rgb(66, 66, 66)" stroke-width="1px" opacity="0.25"></line><line x1="238.33333333333331" y1="0" x2="238.33333333333331" y2="177" fill="rgb(0, 0, 0)" stroke="rgb(66, 66, 66)" stroke-width="1px" opacity="0.25"></line><line x1="260" y1="0" x2="260" y2="177" fill="rgb(0, 0, 0)" stroke="rgb(66, 66, 66)" stroke-width="1px" opacity="0.25"></line></g><g><line x1="0" y1="177" x2="260" y2="177" fill="rgb(0, 0, 0)" stroke="rgb(66, 66, 66)" stroke-width="1px" opacity="0.25"></line><line x1="0" y1="154.87499999999997" x2="260" y2="154.87499999999997" fill="rgb(0, 0, 0)" stroke="rgb(66, 66, 66)" stroke-width="1px" opacity="0.25"></line><line x1="0" y1="132.75000000000003" x2="260" y2="132.75000000000003" fill="rgb(0, 0, 0)" stroke="rgb(66, 66, 66)" stroke-width="1px" opacity="0.25"></line><line x1="0" y1="110.62500000000001" x2="260" y2="110.62500000000001" fill="rgb(0, 0, 0)" stroke="rgb(66, 66, 66)" stroke-width="1px" opacity="0.25"></line><line x1="0" y1="88.5" x2="260" y2="88.5" fill="rgb(0, 0, 0)" stroke="rgb(66, 66, 66)" stroke-width="1px" opacity="0.25"></line><line x1="0" y1="66.37499999999999" x2="260" y2="66.37499999999999" fill="rgb(0, 0, 0)" stroke="rgb(66, 66, 66)" stroke-width="1px" opacity="0.25"></line><line x1="0" y1="44.25000000000004" x2="260" y2="44.25000000000004" fill="rgb(0, 0, 0)" stroke="rgb(66, 66, 66)" stroke-width="1px" opacity="0.25"></line><line x1="0" y1="22.12500000000002" x2="260" y2="22.12500000000002" fill="rgb(0, 0, 0)" stroke="rgb(66, 66, 66)" stroke-width="1px" opacity="0.25"></line><line x1="0" y1="0" x2="260" y2="0" fill="rgb(0, 0, 0)" stroke="rgb(66, 66, 66)" stroke-width="1px" opacity="0.25"></line></g></g></g><g><g><line x1="0" y1="531" x2="260" y2="531" fill="rgb(0, 0, 0)" stroke="rgb(153, 153, 153)" stroke-width="1.5px"></line></g></g><g><g><line x1="21.666666666666664" y1="0" x2="21.666666666666664" y2="177" fill="rgb(0, 0, 0)" stroke="rgb(153, 153, 153)" stroke-width="1.5px"></line></g></g><g><g><g><g><g><path stroke="rgb(255, 112, 67)" stroke-width="2px" d="M30.333333333333332,-5.098141424030806L32.5,11.712069357262923L34.666666666666664,22.713328989746966L36.833333333333336,33.63601783705985L39,41.95060859543814L41.166666666666664,48.02827762086L43.33333333333333,54.21056513803259L45.5,60.53154721667494L47.666666666666664,62.826315601123774L49.833333333333336,68.02218882389988L52,71.05837205142045L54.16666666666667,75.40862307075741L56.333333333333336,79.59304332640846L58.5,83.70478275305591L60.666666666666664,86.86516645030245L62.833333333333336,90.05775368873603L65,92.33858330951068L67.16666666666667,95.87814031387965L69.33333333333333,98.0937954625323L71.5,101.33550979998138L73.66666666666667,104.15547406599543L75.83333333333334,106.22497408654122L78,108.00356960877261L80.16666666666667,110.5086946557897L82.33333333333333,112.89770713383173L84.5,114.56245631235741L86.66666666666666,116.1850922092383L88.83333333333333,117.09230737140398L91,118.44150424262662L93.16666666666667,119.27108385114947L95.33333333333333,120.25390184541733L97.5,121.06332981300879L99.66666666666667,121.96543222978208L101.83333333333333,124.07947119925308L104,123.64170872831502L106.16666666666667,125.67031824212742L108.33333333333334,126.46632376821985L110.5,126.90721630333512L112.66666666666667,128.93004488722468L114.83333333333333,128.55823855558145L117,130.38406796002948L119.16666666666666,131.32426598000174L121.33333333333333,131.92019970242015L123.5,132.8569726349554L125.66666666666667,133.47160517658475L127.83333333333333,133.88002970657496L130,135.0026979057053L132.16666666666666,135.59086013037492L134.33333333333334,135.84923586069698L136.5,136.24580735232976L138.66666666666666,137.04349485869182L140.83333333333331,137.78036860725294L143,138.80475517124566L145.16666666666666,138.7169534490146L147.33333333333334,139.01051095429887L149.5,139.97504531400702L151.66666666666669,140.58767436031883L153.83333333333334,139.83157552530997L156,140.30008706450838L158.16666666666666,141.21360187679758L160.33333333333334,142.08670089885737L162.5,142.76066734564384L164.66666666666666,143.45349141238378L166.83333333333334,143.89115957038555L169,145.00471865604493L171.16666666666666,145.74813840594985L173.33333333333331,146.63317008276047L175.5,146.74584774276167L177.66666666666666,146.67259505898085L179.83333333333334,147.16168331659046L182,147.31770574856523L184.16666666666669,147.0075006264968L186.33333333333334,147.9770006017997L188.5,147.9382603795596L190.66666666666666,147.34388090781977L192.83333333333334,147.91905096016893L195,148.61390270943977L197.16666666666666,148.5726790482136L199.33333333333334,149.03772962864238L201.5,149.50171505228278L203.66666666666666,147.97475025469421L205.83333333333331,149.43115596124144L208,150.66965100928314L210.16666666666666,150.54972325944402L212.33333333333334,150.88661293571295L214.5,150.93348008772793L216.66666666666669,152.07825428325572L218.83333333333334,152.57577887224343L221,152.97722227899547L223.16666666666666,152.33434264155224L225.33333333333334,152.26658263529535L227.5,153.07421434804917L229.66666666666666,153.6752886981375L231.83333333333334,153.45205552119657L234,153.2107032022694L236.16666666666666,153.9683967504989" style="fill: none;" fill="none"></path></g></g></g></g><g opacity="0.2"><g><g><g><path stroke="rgb(255, 112, 67)" stroke-width="2px" d="M23.833333333333332,-11.151171946898103L26,3.2348547074943976L28.166666666666668,15.07177347689869L30.333333333333332,24.161812657490394L32.5,34.96664254367354L34.666666666666664,38.44530628435316L36.833333333333336,49.56140303425493L39,54.21301493793728L41.166666666666664,57.05290780775251L43.33333333333333,63.42792352102697L45.5,69.97862182930112L47.666666666666664,66.26097536087036L49.833333333333336,75.80581940151751L52,75.60907797329128L54.16666666666667,81.93093146570027L56.333333333333336,85.86790300346911L58.5,89.87134792283177L60.666666666666664,91.60526054352522L62.833333333333336,94.84634273126721L65,95.75970265455544L67.16666666666667,101.18735934980214L69.33333333333333,101.41723444126546L71.5,106.19804290495813L73.66666666666667,108.38540042191744L75.83333333333334,109.32921529188752L78,110.67145834118128L80.16666666666667,114.26637838035822L82.33333333333333,116.48122365027666L84.5,117.05957916006446L86.66666666666666,118.61904551647604L88.83333333333333,118.453129934147L91,120.46529938839376L93.16666666666667,120.5154532045126L95.33333333333333,121.7281287945807L97.5,122.27747174352407L99.66666666666667,123.31858584098518L101.83333333333333,127.25052963383496L104,122.98506502434611L106.16666666666667,128.71323250606656L108.33333333333334,127.66033205576241L110.5,127.56855510547757L112.66666666666667,131.96428776159883L114.83333333333333,128.0005290582776L117,133.1228120662272L119.16666666666666,132.73456300981343L121.33333333333333,132.81410028599203L123.5,134.2621320337057L125.66666666666667,134.39355398900807L127.83333333333333,134.49266650155187L130,136.6867002043873L132.16666666666666,136.47310346737504L134.33333333333334,136.23679945617914L136.5,136.8406645897776L138.66666666666666,138.2400261182338L140.83333333333331,138.88567923009396L143,140.3413350172341L145.16666666666666,138.58525086566806L147.33333333333334,139.4508472122252L149.5,141.42184685356915L151.66666666666669,141.50661792978644L153.83333333333334,138.69742727279663L156,141.00285437330604L158.16666666666666,142.5838740952313L160.33333333333334,143.39634943194687L162.5,143.77161701582372L164.66666666666666,144.49272751249373L166.83333333333334,144.54766180738807L169,146.67505728453398L171.16666666666666,146.86326803080738L173.33333333333331,147.96071759797633L175.5,146.91486423276365L177.66666666666666,146.5627160333097L179.83333333333334,147.8953157030046L182,147.5517393965274L184.16666666666669,146.54219294339418L186.33333333333334,149.431250564754L188.5,147.88015004619956L190.66666666666666,146.45231170020998L192.83333333333334,148.7818060386926L195,149.65618033334613L197.16666666666666,148.5108435563743L199.33333333333334,149.73530549928546L201.5,150.19769318774343L203.66666666666666,145.68430305831134L205.83333333333331,151.61576452106237L208,152.52739358134568L210.16666666666666,150.3698316346854L212.33333333333334,151.39194745011628L214.5,151.00378081575036L216.66666666666669,153.79541557654738L218.83333333333334,153.3220657557249L221,153.57938738912344L223.16666666666666,151.37002318538725L225.33333333333334,152.16494262591004L227.5,154.28566191717982L229.66666666666666,154.57690022327006L231.83333333333334,153.1172057557851L234,152.8486747238785L236.16666666666666,155.1049370728433" style="fill: none;" fill="none"></path></g></g></g></g></g></g><g transform="translate(70, 177)" clip-path="url(#clip_1)"><clipPath id="clip_1"><rect width="260" height="23"></rect></clipPath><g><g><line x1="0" y1="0" x2="0" y2="5" style="visibility: inherit;" fill="rgb(0, 0, 0)" stroke="rgb(204, 204, 204)" stroke-width="1px"></line><line x1="21.666666666666664" y1="0" x2="21.666666666666664" y2="5" style="visibility: inherit;" fill="rgb(0, 0, 0)" stroke="rgb(204, 204, 204)" stroke-width="1px"></line><line x1="43.33333333333333" y1="0" x2="43.33333333333333" y2="5" style="visibility: inherit;" fill="rgb(0, 0, 0)" stroke="rgb(204, 204, 204)" stroke-width="1px"></line><line x1="65" y1="0" x2="65" y2="5" style="visibility: inherit;" fill="rgb(0, 0, 0)" stroke="rgb(204, 204, 204)" stroke-width="1px"></line><line x1="86.66666666666666" y1="0" x2="86.66666666666666" y2="5" style="visibility: inherit;" fill="rgb(0, 0, 0)" stroke="rgb(204, 204, 204)" stroke-width="1px"></line><line x1="108.33333333333334" y1="0" x2="108.33333333333334" y2="5" style="visibility: inherit;" fill="rgb(0, 0, 0)" stroke="rgb(204, 204, 204)" stroke-width="1px"></line><line x1="130" y1="0" x2="130" y2="5" style="visibility: inherit;" fill="rgb(0, 0, 0)" stroke="rgb(204, 204, 204)" stroke-width="1px"></line><line x1="151.66666666666669" y1="0" x2="151.66666666666669" y2="5" style="visibility: inherit;" fill="rgb(0, 0, 0)" stroke="rgb(204, 204, 204)" stroke-width="1px"></line><line x1="173.33333333333331" y1="0" x2="173.33333333333331" y2="5" style="visibility: inherit;" fill="rgb(0, 0, 0)" stroke="rgb(204, 204, 204)" stroke-width="1px"></line><line x1="195" y1="0" x2="195" y2="5" style="visibility: inherit;" fill="rgb(0, 0, 0)" stroke="rgb(204, 204, 204)" stroke-width="1px"></line><line x1="216.66666666666669" y1="0" x2="216.66666666666669" y2="5" style="visibility: inherit;" fill="rgb(0, 0, 0)" stroke="rgb(204, 204, 204)" stroke-width="1px"></line><line x1="238.33333333333331" y1="0" x2="238.33333333333331" y2="5" style="visibility: inherit;" fill="rgb(0, 0, 0)" stroke="rgb(204, 204, 204)" stroke-width="1px"></line><line x1="260" y1="0" x2="260" y2="5" style="visibility: inherit;" fill="rgb(0, 0, 0)" stroke="rgb(204, 204, 204)" stroke-width="1px"></line></g><g transform="translate(0, 8)"><text x="0" y="0" dx="0em" dy="0.95em" style="text-anchor: middle; visibility: hidden; font-family: Roboto, sans-serif; font-size: 12px; font-weight: 200;" fill="rgb(33, 33, 33)" stroke="none" stroke-width="1px">-10</text><text x="21.666666666666664" y="0" dx="0em" dy="0.95em" style="text-anchor: middle; visibility: inherit; font-family: Roboto, sans-serif; font-size: 12px; font-weight: 200;" fill="rgb(33, 33, 33)" stroke="none" stroke-width="1px">0</text><text x="43.33333333333333" y="0" dx="0em" dy="0.95em" style="text-anchor: middle; visibility: inherit; font-family: Roboto, sans-serif; font-size: 12px; font-weight: 200;" fill="rgb(33, 33, 33)" stroke="none" stroke-width="1px">10</text><text x="65" y="0" dx="0em" dy="0.95em" style="text-anchor: middle; visibility: inherit; font-family: Roboto, sans-serif; font-size: 12px; font-weight: 200;" fill="rgb(33, 33, 33)" stroke="none" stroke-width="1px">20</text><text x="86.66666666666666" y="0" dx="0em" dy="0.95em" style="text-anchor: middle; visibility: inherit; font-family: Roboto, sans-serif; font-size: 12px; font-weight: 200;" fill="rgb(33, 33, 33)" stroke="none" stroke-width="1px">30</text><text x="108.33333333333334" y="0" dx="0em" dy="0.95em" style="text-anchor: middle; visibility: inherit; font-family: Roboto, sans-serif; font-size: 12px; font-weight: 200;" fill="rgb(33, 33, 33)" stroke="none" stroke-width="1px">40</text><text x="130" y="0" dx="0em" dy="0.95em" style="text-anchor: middle; visibility: inherit; font-family: Roboto, sans-serif; font-size: 12px; font-weight: 200;" fill="rgb(33, 33, 33)" stroke="none" stroke-width="1px">50</text><text x="151.66666666666669" y="0" dx="0em" dy="0.95em" style="text-anchor: middle; visibility: inherit; font-family: Roboto, sans-serif; font-size: 12px; font-weight: 200;" fill="rgb(33, 33, 33)" stroke="none" stroke-width="1px">60</text><text x="173.33333333333331" y="0" dx="0em" dy="0.95em" style="text-anchor: middle; visibility: inherit; font-family: Roboto, sans-serif; font-size: 12px; font-weight: 200;" fill="rgb(33, 33, 33)" stroke="none" stroke-width="1px">70</text><text x="195" y="0" dx="0em" dy="0.95em" style="text-anchor: middle; visibility: inherit; font-family: Roboto, sans-serif; font-size: 12px; font-weight: 200;" fill="rgb(33, 33, 33)" stroke="none" stroke-width="1px">80</text><text x="216.66666666666669" y="0" dx="0em" dy="0.95em" style="text-anchor: middle; visibility: inherit; font-family: Roboto, sans-serif; font-size: 12px; font-weight: 200;" fill="rgb(33, 33, 33)" stroke="none" stroke-width="1px">90</text><text x="238.33333333333331" y="0" dx="0em" dy="0.95em" style="text-anchor: middle; visibility: inherit; font-family: Roboto, sans-serif; font-size: 12px; font-weight: 200;" fill="rgb(33, 33, 33)" stroke="none" stroke-width="1px">100</text><text x="260" y="0" dx="0em" dy="0.95em" style="text-anchor: middle; visibility: hidden; font-family: Roboto, sans-serif; font-size: 12px; font-weight: 200;" fill="rgb(33, 33, 33)" stroke="none" stroke-width="1px">110</text></g><line x1="0" y1="0" x2="260" y2="0" fill="rgb(0, 0, 0)" stroke="rgb(204, 204, 204)" stroke-width="1px"></line></g></g></g></g></svg>