<svg viewBox="0 0 330 200" xmlns="http://www.w3.org/2000/svg"><g><g><g><g><g><line x1="70" y1="165.20000000000002" x2="65" y2="165.20000000000002" style="visibility: inherit;" fill="rgb(0, 0, 0)" stroke="rgb(204, 204, 204)" stroke-width="1px"></line><line x1="70" y1="141.6" x2="65" y2="141.6" style="visibility: inherit;" fill="rgb(0, 0, 0)" stroke="rgb(204, 204, 204)" stroke-width="1px"></line><line x1="70" y1="118.00000000000001" x2="65" y2="118.00000000000001" style="visibility: inherit;" fill="rgb(0, 0, 0)" stroke="rgb(204, 204, 204)" stroke-width="1px"></line><line x1="70" y1="94.39999999999998" x2="65" y2="94.39999999999998" style="visibility: inherit;" fill="rgb(0, 0, 0)" stroke="rgb(204, 204, 204)" stroke-width="1px"></line><line x1="70" y1="70.79999999999998" x2="65" y2="70.79999999999998" style="visibility: inherit;" fill="rgb(0, 0, 0)" stroke="rgb(204, 204, 204)" stroke-width="1px"></line><line x1="70" y1="47.20000000000003" x2="65" y2="47.20000000000003" style="visibility: inherit;" fill="rgb(0, 0, 0)" stroke="rgb(204, 204, 204)" stroke-width="1px"></line><line x1="70" y1="23.600000000000016" x2="65" y2="23.600000000000016" style="visibility: inherit;" fill="rgb(0, 0, 0)" stroke="rgb(204, 204, 204)" stroke-width="1px"></line><line x1="70" y1="0" x2="65" y2="0" style="visibility: inherit;" fill="rgb(0, 0, 0)" stroke="rgb(204, 204, 204)" stroke-width="1px"></line></g><g transform="translate(60, 0)"><text x="0" y="165.20000000000002" dx="0em" dy="0.3em" style="text-anchor: end; visibility: inherit; font-family: Roboto, sans-serif; font-size: 12px; font-weight: 200;" fill="rgb(33, 33, 33)" stroke="none" stroke-width="1px">2.4e-3</text><text x="0" y="141.6" dx="0em" dy="0.3em" style="text-anchor: end; visibility: inherit; font-family: Roboto, sans-serif; font-size: 12px; font-weight: 200;" fill="rgb(33, 33, 33)" stroke="none" stroke-width="1px">2.6e-3</text><text x="0" y="118.00000000000001" dx="0em" dy="0.3em" style="text-anchor: end; visibility: inherit; font-family: Roboto, sans-serif; font-size: 12px; font-weight: 200;" fill="rgb(33, 33, 33)" stroke="none" stroke-width="1px">2.8e-3</text><text x="0" y="94.39999999999998" dx="0em" dy="0.3em" style="text-anchor: end; visibility: inherit; font-family: Roboto, sans-serif; font-size: 12px; font-weight: 200;" fill="rgb(33, 33, 33)" stroke="none" stroke-width="1px">3e-3</text><text x="0" y="70.79999999999998" dx="0em" dy="0.3em" style="text-anchor: end; visibility: inherit; font-family: Roboto, sans-serif; font-size: 12px; font-weight: 200;" fill="rgb(33, 33, 33)" stroke="none" stroke-width="1px">3.2e-3</text><text x="0" y="47.20000000000003" dx="0em" dy="0.3em" style="text-anchor: end; visibility: inherit; font-family: Roboto, sans-serif; font-size: 12px; font-weight: 200;" fill="rgb(33, 33, 33)" stroke="none" stroke-width="1px">3.4e-3</text><text x="0" y="23.600000000000016" dx="0em" dy="0.3em" style="text-anchor: end; visibility: inherit; font-family: Roboto, sans-serif; font-size: 12px; font-weight: 200;" fill="rgb(33, 33, 33)" stroke="none" stroke-width="1px">3.6e-3</text><text x="0" y="0" dx="0em" dy="0.3em" style="text-anchor: end; visibility: hidden; font-family: Roboto, sans-serif; font-size: 12px; font-weight: 200;" fill="rgb(33, 33, 33)" stroke="none" stroke-width="1px">3.8e-3</text></g><line x1="70" y1="0" x2="70" y2="177" fill="rgb(0, 0, 0)" stroke="rgb(204, 204, 204)" stroke-width="1px"></line></g></g><g transform="translate(70, 0)" clip-path="url(#clip_0)"><clipPath id="clip_0"><rect width="260" height="177"></rect></clipPath><g><g><g><line x1="0" y1="0" x2="0" y2="177" fill="rgb(0, 0, 0)" stroke="rgb(66, 66, 66)" stroke-width="1px" opacity="0.25"></line><line x1="21.666666666666664" y1="0" x2="21.666666666666664" y2="177" fill="rgb(0, 0, 0)" stroke="rgb(66, 66, 66)" stroke-width="1px" opacity="0.25"></line><line x1="43.33333333333333" y1="0" x2="43.33333333333333" y2="177" fill="rgb(0, 0, 0)" stroke="rgb(66, 66, 66)" stroke-width="1px" opacity="0.25"></line><line x1="65" y1="0" x2="65" y2="177" fill="rgb(0, 0, 0)" stroke="rgb(66, 66, 66)" stroke-width="1px" opacity="0.25"></line><line x1="86.66666666666666" y1="0" x2="86.66666666666666" y2="177" fill="rgb(0, 0, 0)" stroke="rgb(66, 66, 66)" stroke-width="1px" opacity="0.25"></line><line x1="108.33333333333334" y1="0" x2="108.33333333333334" y2="177" fill="rgb(0, 0, 0)" stroke="rgb(66, 66, 66)" stroke-width="1px" opacity="0.25"></line><line x1="130" y1="0" x2="130" y2="177" fill="rgb(0, 0, 0)" stroke="rgb(66, 66, 66)" stroke-width="1px" opacity="0.25"></line><line x1="151.66666666666669" y1="0" x2="151.66666666666669" y2="177" fill="rgb(0, 0, 0)" stroke="rgb(66, 66, 66)" stroke-width="1px" opacity="0.25"></line><line x1="173.33333333333331" y1="0" x2="173.33333333333331" y2="177" fill="rgb(0, 0, 0)" stroke="rgb(66, 66, 66)" stroke-width="1px" opacity="0.25"></line><line x1="195" y1="0" x2="195" y2="177" fill="rgb(0, 0, 0)" stroke="rgb(66, 66, 66)" stroke-width="1px" opacity="0.25"></line><line x1="216.66666666666669" y1="0" x2="216.66666666666669" y2="177" fill="rgb(0, 0, 0)" stroke="rgb(66, 66, 66)" stroke-width="1px" opacity="0.25"></line><line x1="238.33333333333331" y1="0" x2="238.33333333333331" y2="177" fill="rgb(0, 0, 0)" stroke="rgb(66, 66, 66)" stroke-width="1px" opacity="0.25"></line><line x1="260" y1="0" x2="260" y2="177" fill="rgb(0, 0, 0)" stroke="rgb(66, 66, 66)" stroke-width="1px" opacity="0.25"></line></g><g><line x1="0" y1="165.20000000000002" x2="260" y2="165.20000000000002" fill="rgb(0, 0, 0)" stroke="rgb(66, 66, 66)" stroke-width="1px" opacity="0.25"></line><line x1="0" y1="141.6" x2="260" y2="141.6" fill="rgb(0, 0, 0)" stroke="rgb(66, 66, 66)" stroke-width="1px" opacity="0.25"></line><line x1="0" y1="118.00000000000001" x2="260" y2="118.00000000000001" fill="rgb(0, 0, 0)" stroke="rgb(66, 66, 66)" stroke-width="1px" opacity="0.25"></line><line x1="0" y1="94.39999999999998" x2="260" y2="94.39999999999998" fill="rgb(0, 0, 0)" stroke="rgb(66, 66, 66)" stroke-width="1px" opacity="0.25"></line><line x1="0" y1="70.79999999999998" x2="260" y2="70.79999999999998" fill="rgb(0, 0, 0)" stroke="rgb(66, 66, 66)" stroke-width="1px" opacity="0.25"></line><line x1="0" y1="47.20000000000003" x2="260" y2="47.20000000000003" fill="rgb(0, 0, 0)" stroke="rgb(66, 66, 66)" stroke-width="1px" opacity="0.25"></line><line x1="0" y1="23.600000000000016" x2="260" y2="23.600000000000016" fill="rgb(0, 0, 0)" stroke="rgb(66, 66, 66)" stroke-width="1px" opacity="0.25"></line><line x1="0" y1="0" x2="260" y2="0" fill="rgb(0, 0, 0)" stroke="rgb(66, 66, 66)" stroke-width="1px" opacity="0.25"></line></g></g></g><g><g><line x1="0" y1="448.4" x2="260" y2="448.4" fill="rgb(0, 0, 0)" stroke="rgb(153, 153, 153)" stroke-width="1.5px"></line></g></g><g><g><line x1="21.666666666666664" y1="0" x2="21.666666666666664" y2="177" fill="rgb(0, 0, 0)" stroke="rgb(153, 153, 153)" stroke-width="1.5px"></line></g></g><g><g><g><g><g><path stroke="rgb(255, 112, 67)" stroke-width="2px" d="M30.333333333333332,-19.227011555570805L32.5,17.249074650342273L34.666666666666664,37.440810576716835L36.833333333333336,50.34082844719397L39,62.009274360771755L41.166666666666664,77.77979426579795L43.33333333333333,85.88653961993617L45.5,90.92879971822431L47.666666666666664,96.38147712111233L49.833333333333336,96.27135220604644L52,101.38161806163852L54.16666666666667,104.473973969208L56.333333333333336,106.48240186625901L58.5,106.48775750671977L60.666666666666664,106.1793302742394L62.833333333333336,107.9616952501701L65,112.36945849271885L67.16666666666667,112.23127375731714L69.33333333333333,111.38688824041728L71.5,114.63171298710952L73.66666666666667,117.60040351162948L75.83333333333334,120.05457310894779L78,119.96096375909855L80.16666666666667,122.56866944339211L82.33333333333333,122.81594524766281L84.5,123.83257768477331L86.66666666666666,123.1319034035951L88.83333333333333,125.05738441747027L91,125.75272490991514L93.16666666666667,126.5782260416832L95.33333333333333,128.47229481936452L97.5,129.61451659815037L99.66666666666667,130.65204456534244L101.83333333333333,132.21320560520175L104,133.41440007236164L106.16666666666667,133.42641901373415L108.33333333333334,135.26790558098165L110.5,134.7582375190095L112.66666666666667,136.74298935091792L114.83333333333333,137.98399701322538L117,137.8355642166903L119.16666666666666,137.84947715057046L121.33333333333333,138.0041734990721L123.5,139.68802256154294L125.66666666666667,138.7800412572337L127.83333333333333,139.70422216993796L130,140.52637159134684L132.16666666666666,141.00644074771384L134.33333333333334,140.8354244038077L136.5,141.9275386655111L138.66666666666666,143.45797551624744L140.83333333333331,142.99617384703598L143,143.3325986113051L145.16666666666666,144.9306060332598L147.33333333333334,145.6779484804596L149.5,146.2675374219493L151.66666666666669,146.68893181411477L153.83333333333334,146.6102559833411L156,147.05496724567905L158.16666666666666,147.00730443729225L160.33333333333334,147.8810193737344L162.5,148.51188048630925L164.66666666666666,149.29671587055907L166.83333333333334,149.78781599763622L169,149.75902997889276L171.16666666666666,150.53701024376247L173.33333333333331,150.57830282284553L175.5,150.41658475001893L177.66666666666666,150.7910629680767L179.83333333333334,150.9020404416928L182,151.4115740006333L184.16666666666669,152.04886155010254L186.33333333333334,152.38842956293223L188.5,153.0005551333344L190.66666666666666,153.19242536813715L192.83333333333334,153.14549477333242L195,153.02767221799147L197.16666666666666,153.6260479004422L199.33333333333334,154.21308566309446L201.5,154.23590585903784L203.66666666666666,153.99279285470524L205.83333333333331,153.90740085601738L208,154.30705821698862L210.16666666666666,154.36096344164582L212.33333333333334,154.8912566311453L214.5,154.74777017040807L216.66666666666669,155.13595673652745L218.83333333333334,155.49290836341535L221,155.9122552906713L223.16666666666666,155.95277508766895L225.33333333333334,155.57350466115142L227.5,156.1365127090386L229.66666666666666,155.6675155853493L231.83333333333334,156.13918008835694L234,156.44997150469771L236.16666666666666,157.0133458949265" style="fill: none;" fill="none"></path></g></g></g></g><g opacity="0.2"><g><g><g><path stroke="rgb(255, 112, 67)" stroke-width="2px" d="M23.833333333333332,-39.04333162903784L26,15.70894790962339L28.166666666666668,40.70019198730587L30.333333333333332,57.86252290159463L32.5,67.7086332641542L34.666666666666664,66.31531601920723L36.833333333333336,69.1491783425212L39,79.21796560436488L41.166666666666664,101.19717836529017L43.33333333333333,97.97313006743788L45.5,98.46475010886789L47.666666666666664,104.54268928766251L49.833333333333336,96.1063805796206L52,109.04100991934537L54.16666666666667,109.11032686159014L56.333333333333336,109.49419381245971L58.5,106.49578960761428L60.666666666666664,105.71673641130329L62.833333333333336,110.63507979884744L65,118.98086162433027L67.16666666666667,112.02400120124221L69.33333333333333,110.12032663598656L71.5,119.4989116691053L73.66666666666667,122.05341819822789L75.83333333333334,123.73581703901291L78,119.82054997384549L80.16666666666667,126.4802239663899L82.33333333333333,123.18685872629284L84.5,125.35752577856182L86.66666666666666,122.08089221417904L88.83333333333333,127.94560555517674L91,126.79573556557298L93.16666666666667,127.8164776802063L95.33333333333333,131.31339790448547L97.5,131.32784923687578L99.66666666666667,132.20833650007845L101.83333333333333,134.55494715049863L104,135.21619176641107L106.16666666666667,133.44444742575288L108.33333333333334,138.03013542816043L110.5,133.99373542666436L112.66666666666667,139.72011709734798L114.83333333333333,139.84550850614906L117,137.61291502192617L119.16666666666666,137.8703465513885L121.33333333333333,138.23621802181006L123.5,142.2137961551547L125.66666666666667,137.41806930080057L127.83333333333333,141.09049353897572L130,141.7595957234502L132.16666666666666,141.72654448226095L134.33333333333334,140.57889988794923L136.5,143.56571005806327L138.66666666666666,145.75363079234958L140.83333333333331,142.3034713432193L143,143.83723575770856L145.16666666666666,147.32761716619135L147.33333333333334,146.7989621512592L149.5,147.1519208341837L151.66666666666669,147.32102340236307L153.83333333333334,146.49224223718048L156,147.72203413918615L158.16666666666666,146.9358102247119L160.33333333333334,149.19159177839757L162.5,149.45817215517164L164.66666666666666,150.47396894693375L166.83333333333334,150.52446618825198L169,149.71585095077754L171.16666666666666,151.70398064106703L173.33333333333331,150.64024169147015L175.5,150.17400764077902L177.66666666666666,151.3527802951634L179.83333333333334,151.06850665211678L182,152.1758743390441L184.16666666666669,153.00479287430645L186.33333333333334,152.8977815821767L188.5,153.91874348893762L190.66666666666666,153.4802307203412L192.83333333333334,153.07509888112546L195,152.85093838497997L197.16666666666666,154.5236114241183L199.33333333333334,155.09364230707288L201.5,154.27013615295292L203.66666666666666,153.6281233482063L205.83333333333331,153.7793128579855L208,154.9065442584455L210.16666666666666,154.4418212786317L212.33333333333334,155.68669641539455L214.5,154.5325404793024L216.66666666666669,155.71823658570648L218.83333333333334,156.02833580374718L221,156.54127568155528L223.16666666666666,156.01355478316546L225.33333333333334,155.00459902137518L227.5,156.9810247808695L229.66666666666666,154.96401989981533L231.83333333333334,156.84667684286833L234,156.9161586292088L236.16666666666666,157.85840748026968" style="fill: none;" fill="none"></path></g></g></g></g></g></g><g transform="translate(70, 177)" clip-path="url(#clip_1)"><clipPath id="clip_1"><rect width="260" height="23"></rect></clipPath><g><g><line x1="0" y1="0" x2="0" y2="5" style="visibility: inherit;" fill="rgb(0, 0, 0)" stroke="rgb(204, 204, 204)" stroke-width="1px"></line><line x1="21.666666666666664" y1="0" x2="21.666666666666664" y2="5" style="visibility: inherit;" fill="rgb(0, 0, 0)" stroke="rgb(204, 204, 204)" stroke-width="1px"></line><line x1="43.33333333333333" y1="0" x2="43.33333333333333" y2="5" style="visibility: inherit;" fill="rgb(0, 0, 0)" stroke="rgb(204, 204, 204)" stroke-width="1px"></line><line x1="65" y1="0" x2="65" y2="5" style="visibility: inherit;" fill="rgb(0, 0, 0)" stroke="rgb(204, 204, 204)" stroke-width="1px"></line><line x1="86.66666666666666" y1="0" x2="86.66666666666666" y2="5" style="visibility: inherit;" fill="rgb(0, 0, 0)" stroke="rgb(204, 204, 204)" stroke-width="1px"></line><line x1="108.33333333333334" y1="0" x2="108.33333333333334" y2="5" style="visibility: inherit;" fill="rgb(0, 0, 0)" stroke="rgb(204, 204, 204)" stroke-width="1px"></line><line x1="130" y1="0" x2="130" y2="5" style="visibility: inherit;" fill="rgb(0, 0, 0)" stroke="rgb(204, 204, 204)" stroke-width="1px"></line><line x1="151.66666666666669" y1="0" x2="151.66666666666669" y2="5" style="visibility: inherit;" fill="rgb(0, 0, 0)" stroke="rgb(204, 204, 204)" stroke-width="1px"></line><line x1="173.33333333333331" y1="0" x2="173.33333333333331" y2="5" style="visibility: inherit;" fill="rgb(0, 0, 0)" stroke="rgb(204, 204, 204)" stroke-width="1px"></line><line x1="195" y1="0" x2="195" y2="5" style="visibility: inherit;" fill="rgb(0, 0, 0)" stroke="rgb(204, 204, 204)" stroke-width="1px"></line><line x1="216.66666666666669" y1="0" x2="216.66666666666669" y2="5" style="visibility: inherit;" fill="rgb(0, 0, 0)" stroke="rgb(204, 204, 204)" stroke-width="1px"></line><line x1="238.33333333333331" y1="0" x2="238.33333333333331" y2="5" style="visibility: inherit;" fill="rgb(0, 0, 0)" stroke="rgb(204, 204, 204)" stroke-width="1px"></line><line x1="260" y1="0" x2="260" y2="5" style="visibility: inherit;" fill="rgb(0, 0, 0)" stroke="rgb(204, 204, 204)" stroke-width="1px"></line></g><g transform="translate(0, 8)"><text x="0" y="0" dx="0em" dy="0.95em" style="text-anchor: middle; visibility: hidden; font-family: Roboto, sans-serif; font-size: 12px; font-weight: 200;" fill="rgb(33, 33, 33)" stroke="none" stroke-width="1px">-10</text><text x="21.666666666666664" y="0" dx="0em" dy="0.95em" style="text-anchor: middle; visibility: inherit; font-family: Roboto, sans-serif; font-size: 12px; font-weight: 200;" fill="rgb(33, 33, 33)" stroke="none" stroke-width="1px">0</text><text x="43.33333333333333" y="0" dx="0em" dy="0.95em" style="text-anchor: middle; visibility: inherit; font-family: Roboto, sans-serif; font-size: 12px; font-weight: 200;" fill="rgb(33, 33, 33)" stroke="none" stroke-width="1px">10</text><text x="65" y="0" dx="0em" dy="0.95em" style="text-anchor: middle; visibility: inherit; font-family: Roboto, sans-serif; font-size: 12px; font-weight: 200;" fill="rgb(33, 33, 33)" stroke="none" stroke-width="1px">20</text><text x="86.66666666666666" y="0" dx="0em" dy="0.95em" style="text-anchor: middle; visibility: inherit; font-family: Roboto, sans-serif; font-size: 12px; font-weight: 200;" fill="rgb(33, 33, 33)" stroke="none" stroke-width="1px">30</text><text x="108.33333333333334" y="0" dx="0em" dy="0.95em" style="text-anchor: middle; visibility: inherit; font-family: Roboto, sans-serif; font-size: 12px; font-weight: 200;" fill="rgb(33, 33, 33)" stroke="none" stroke-width="1px">40</text><text x="130" y="0" dx="0em" dy="0.95em" style="text-anchor: middle; visibility: inherit; font-family: Roboto, sans-serif; font-size: 12px; font-weight: 200;" fill="rgb(33, 33, 33)" stroke="none" stroke-width="1px">50</text><text x="151.66666666666669" y="0" dx="0em" dy="0.95em" style="text-anchor: middle; visibility: inherit; font-family: Roboto, sans-serif; font-size: 12px; font-weight: 200;" fill="rgb(33, 33, 33)" stroke="none" stroke-width="1px">60</text><text x="173.33333333333331" y="0" dx="0em" dy="0.95em" style="text-anchor: middle; visibility: inherit; font-family: Roboto, sans-serif; font-size: 12px; font-weight: 200;" fill="rgb(33, 33, 33)" stroke="none" stroke-width="1px">70</text><text x="195" y="0" dx="0em" dy="0.95em" style="text-anchor: middle; visibility: inherit; font-family: Roboto, sans-serif; font-size: 12px; font-weight: 200;" fill="rgb(33, 33, 33)" stroke="none" stroke-width="1px">80</text><text x="216.66666666666669" y="0" dx="0em" dy="0.95em" style="text-anchor: middle; visibility: inherit; font-family: Roboto, sans-serif; font-size: 12px; font-weight: 200;" fill="rgb(33, 33, 33)" stroke="none" stroke-width="1px">90</text><text x="238.33333333333331" y="0" dx="0em" dy="0.95em" style="text-anchor: middle; visibility: inherit; font-family: Roboto, sans-serif; font-size: 12px; font-weight: 200;" fill="rgb(33, 33, 33)" stroke="none" stroke-width="1px">100</text><text x="260" y="0" dx="0em" dy="0.95em" style="text-anchor: middle; visibility: hidden; font-family: Roboto, sans-serif; font-size: 12px; font-weight: 200;" fill="rgb(33, 33, 33)" stroke="none" stroke-width="1px">110</text></g><line x1="0" y1="0" x2="260" y2="0" fill="rgb(0, 0, 0)" stroke="rgb(204, 204, 204)" stroke-width="1px"></line></g></g></g></g></svg>