<svg viewBox="0 0 330 200" xmlns="http://www.w3.org/2000/svg"><g><g><g><g><g><line x1="70" y1="177" x2="65" y2="177" style="visibility: inherit;" fill="rgb(0, 0, 0)" stroke="rgb(204, 204, 204)" stroke-width="1px"></line><line x1="70" y1="154.87500000000003" x2="65" y2="154.87500000000003" style="visibility: inherit;" fill="rgb(0, 0, 0)" stroke="rgb(204, 204, 204)" stroke-width="1px"></line><line x1="70" y1="132.75" x2="65" y2="132.75" style="visibility: inherit;" fill="rgb(0, 0, 0)" stroke="rgb(204, 204, 204)" stroke-width="1px"></line><line x1="70" y1="110.62499999999996" x2="65" y2="110.62499999999996" style="visibility: inherit;" fill="rgb(0, 0, 0)" stroke="rgb(204, 204, 204)" stroke-width="1px"></line><line x1="70" y1="88.50000000000001" x2="65" y2="88.50000000000001" style="visibility: inherit;" fill="rgb(0, 0, 0)" stroke="rgb(204, 204, 204)" stroke-width="1px"></line><line x1="70" y1="66.375" x2="65" y2="66.375" style="visibility: inherit;" fill="rgb(0, 0, 0)" stroke="rgb(204, 204, 204)" stroke-width="1px"></line><line x1="70" y1="44.24999999999998" x2="65" y2="44.24999999999998" style="visibility: inherit;" fill="rgb(0, 0, 0)" stroke="rgb(204, 204, 204)" stroke-width="1px"></line><line x1="70" y1="22.12499999999994" x2="65" y2="22.12499999999994" style="visibility: inherit;" fill="rgb(0, 0, 0)" stroke="rgb(204, 204, 204)" stroke-width="1px"></line><line x1="70" y1="0" x2="65" y2="0" style="visibility: inherit;" fill="rgb(0, 0, 0)" stroke="rgb(204, 204, 204)" stroke-width="1px"></line></g><g transform="translate(60, 0)"><text x="0" y="177" dx="0em" dy="0.3em" style="text-anchor: end; visibility: hidden; font-family: Roboto, sans-serif; font-size: 12px; font-weight: 200;" fill="rgb(33, 33, 33)" stroke="none" stroke-width="1px">7e-3</text><text x="0" y="154.87500000000003" dx="0em" dy="0.3em" style="text-anchor: end; visibility: inherit; font-family: Roboto, sans-serif; font-size: 12px; font-weight: 200;" fill="rgb(33, 33, 33)" stroke="none" stroke-width="1px">7.5e-3</text><text x="0" y="132.75" dx="0em" dy="0.3em" style="text-anchor: end; visibility: hidden; font-family: Roboto, sans-serif; font-size: 12px; font-weight: 200;" fill="rgb(33, 33, 33)" stroke="none" stroke-width="1px">8e-3</text><text x="0" y="110.62499999999996" dx="0em" dy="0.3em" style="text-anchor: end; visibility: inherit; font-family: Roboto, sans-serif; font-size: 12px; font-weight: 200;" fill="rgb(33, 33, 33)" stroke="none" stroke-width="1px">8.5e-3</text><text x="0" y="88.50000000000001" dx="0em" dy="0.3em" style="text-anchor: end; visibility: hidden; font-family: Roboto, sans-serif; font-size: 12px; font-weight: 200;" fill="rgb(33, 33, 33)" stroke="none" stroke-width="1px">9e-3</text><text x="0" y="66.375" dx="0em" dy="0.3em" style="text-anchor: end; visibility: inherit; font-family: Roboto, sans-serif; font-size: 12px; font-weight: 200;" fill="rgb(33, 33, 33)" stroke="none" stroke-width="1px">9.5e-3</text><text x="0" y="44.24999999999998" dx="0em" dy="0.3em" style="text-anchor: end; visibility: hidden; font-family: Roboto, sans-serif; font-size: 12px; font-weight: 200;" fill="rgb(33, 33, 33)" stroke="none" stroke-width="1px">0.01</text><text x="0" y="22.12499999999994" dx="0em" dy="0.3em" style="text-anchor: end; visibility: inherit; font-family: Roboto, sans-serif; font-size: 12px; font-weight: 200;" fill="rgb(33, 33, 33)" stroke="none" stroke-width="1px">0.0105</text><text x="0" y="0" dx="0em" dy="0.3em" style="text-anchor: end; visibility: hidden; font-family: Roboto, sans-serif; font-size: 12px; font-weight: 200;" fill="rgb(33, 33, 33)" stroke="none" stroke-width="1px">0.011</text></g><line x1="70" y1="0" x2="70" y2="177" fill="rgb(0, 0, 0)" stroke="rgb(204, 204, 204)" stroke-width="1px"></line></g></g><g transform="translate(70, 0)" clip-path="url(#clip_0)"><clipPath id="clip_0"><rect width="260" height="177"></rect></clipPath><g><g><g><line x1="0" y1="0" x2="0" y2="177" fill="rgb(0, 0, 0)" stroke="rgb(66, 66, 66)" stroke-width="1px" opacity="0.25"></line><line x1="21.666666666666664" y1="0" x2="21.666666666666664" y2="177" fill="rgb(0, 0, 0)" stroke="rgb(66, 66, 66)" stroke-width="1px" opacity="0.25"></line><line x1="43.33333333333333" y1="0" x2="43.33333333333333" y2="177" fill="rgb(0, 0, 0)" stroke="rgb(66, 66, 66)" stroke-width="1px" opacity="0.25"></line><line x1="65" y1="0" x2="65" y2="177" fill="rgb(0, 0, 0)" stroke="rgb(66, 66, 66)" stroke-width="1px" opacity="0.25"></line><line x1="86.66666666666666" y1="0" x2="86.66666666666666" y2="177" fill="rgb(0, 0, 0)" stroke="rgb(66, 66, 66)" stroke-width="1px" opacity="0.25"></line><line x1="108.33333333333334" y1="0" x2="108.33333333333334" y2="177" fill="rgb(0, 0, 0)" stroke="rgb(66, 66, 66)" stroke-width="1px" opacity="0.25"></line><line x1="130" y1="0" x2="130" y2="177" fill="rgb(0, 0, 0)" stroke="rgb(66, 66, 66)" stroke-width="1px" opacity="0.25"></line><line x1="151.66666666666669" y1="0" x2="151.66666666666669" y2="177" fill="rgb(0, 0, 0)" stroke="rgb(66, 66, 66)" stroke-width="1px" opacity="0.25"></line><line x1="173.33333333333331" y1="0" x2="173.33333333333331" y2="177" fill="rgb(0, 0, 0)" stroke="rgb(66, 66, 66)" stroke-width="1px" opacity="0.25"></line><line x1="195" y1="0" x2="195" y2="177" fill="rgb(0, 0, 0)" stroke="rgb(66, 66, 66)" stroke-width="1px" opacity="0.25"></line><line x1="216.66666666666669" y1="0" x2="216.66666666666669" y2="177" fill="rgb(0, 0, 0)" stroke="rgb(66, 66, 66)" stroke-width="1px" opacity="0.25"></line><line x1="238.33333333333331" y1="0" x2="238.33333333333331" y2="177" fill="rgb(0, 0, 0)" stroke="rgb(66, 66, 66)" stroke-width="1px" opacity="0.25"></line><line x1="260" y1="0" x2="260" y2="177" fill="rgb(0, 0, 0)" stroke="rgb(66, 66, 66)" stroke-width="1px" opacity="0.25"></line></g><g><line x1="0" y1="177" x2="260" y2="177" fill="rgb(0, 0, 0)" stroke="rgb(66, 66, 66)" stroke-width="1px" opacity="0.25"></line><line x1="0" y1="154.87500000000003" x2="260" y2="154.87500000000003" fill="rgb(0, 0, 0)" stroke="rgb(66, 66, 66)" stroke-width="1px" opacity="0.25"></line><line x1="0" y1="132.75" x2="260" y2="132.75" fill="rgb(0, 0, 0)" stroke="rgb(66, 66, 66)" stroke-width="1px" opacity="0.25"></line><line x1="0" y1="110.62499999999996" x2="260" y2="110.62499999999996" fill="rgb(0, 0, 0)" stroke="rgb(66, 66, 66)" stroke-width="1px" opacity="0.25"></line><line x1="0" y1="88.50000000000001" x2="260" y2="88.50000000000001" fill="rgb(0, 0, 0)" stroke="rgb(66, 66, 66)" stroke-width="1px" opacity="0.25"></line><line x1="0" y1="66.375" x2="260" y2="66.375" fill="rgb(0, 0, 0)" stroke="rgb(66, 66, 66)" stroke-width="1px" opacity="0.25"></line><line x1="0" y1="44.24999999999998" x2="260" y2="44.24999999999998" fill="rgb(0, 0, 0)" stroke="rgb(66, 66, 66)" stroke-width="1px" opacity="0.25"></line><line x1="0" y1="22.12499999999994" x2="260" y2="22.12499999999994" fill="rgb(0, 0, 0)" stroke="rgb(66, 66, 66)" stroke-width="1px" opacity="0.25"></line><line x1="0" y1="0" x2="260" y2="0" fill="rgb(0, 0, 0)" stroke="rgb(66, 66, 66)" stroke-width="1px" opacity="0.25"></line></g></g></g><g><g><line x1="0" y1="486.75000000000006" x2="260" y2="486.75000000000006" fill="rgb(0, 0, 0)" stroke="rgb(153, 153, 153)" stroke-width="1.5px"></line></g></g><g><g><line x1="21.666666666666664" y1="0" x2="21.666666666666664" y2="177" fill="rgb(0, 0, 0)" stroke="rgb(153, 153, 153)" stroke-width="1.5px"></line></g></g><g><g><g><g><g><path stroke="rgb(255, 112, 67)" stroke-width="2px" d="M28.166666666666668,-19.972617995418425L30.333333333333332,9.59950313467267L32.5,27.806071725515398L34.666666666666664,42.50794745431515L36.833333333333336,52.605560490563015L39,59.16010337037515L41.166666666666664,68.48138514269236L43.33333333333333,74.48483269756518L45.5,79.19560624935338L47.666666666666664,83.33328595552324L49.833333333333336,87.5792478066724L52,90.57948234840265L54.16666666666667,94.97139403802466L56.333333333333336,97.79035513514772L58.5,99.50087996159743L60.666666666666664,103.52376927826043L62.833333333333336,104.10258059102937L65,106.15680243761213L67.16666666666667,109.08776723135367L69.33333333333333,112.17626111585476L71.5,114.9461595877143L73.66666666666667,116.92572926198604L75.83333333333334,118.8294360468354L78,120.30485775110134L80.16666666666667,122.27516376470646L82.33333333333333,123.15980289611599L84.5,124.14717144358116L86.66666666666666,126.59812743593223L88.83333333333333,127.26182187939226L91,129.06188925290513L93.16666666666667,130.95639135340474L95.33333333333333,131.40425854439331L97.5,132.2041559891343L99.66666666666667,133.92759589435948L101.83333333333333,134.3667045182338L104,135.47361099348814L106.16666666666667,136.53244109594118L108.33333333333334,137.27886056151232L110.5,137.70998056474951L112.66666666666667,139.1684455908941L114.83333333333333,140.201173257268L117,141.16942215061513L119.16666666666666,141.95399515579368L121.33333333333333,142.74323423619677L123.5,142.5783777127563L125.66666666666667,141.98527768416793L127.83333333333333,142.88972495855282L130,143.64465482301716L132.16666666666666,144.46791851829056L134.33333333333334,145.39027357137695L136.5,146.3742099279861L138.66666666666666,147.060370888171L140.83333333333331,147.75730544528832L143,148.4321449209839L145.16666666666666,148.46342122127646L147.33333333333334,148.9174001407328L149.5,149.4060464615645L151.66666666666669,149.0630267088873L153.83333333333334,149.86169235447127L156,149.40229418748066L158.16666666666666,150.50041652767928L160.33333333333334,151.65160506583194L162.5,152.2882575675365L164.66666666666666,152.22497219723564L166.83333333333334,152.6335636303252L169,152.48420535812832L171.16666666666666,153.26625300408932L173.33333333333331,153.7487020881416L175.5,154.03483344563494L177.66666666666666,154.3928272993037L179.83333333333334,154.48617472399292L182,155.00885681375274L184.16666666666669,154.3895968455935L186.33333333333334,154.5847748657384L188.5,155.36795897314363L190.66666666666666,156.15050450729976L192.83333333333334,156.33685439798322L195,155.86439091956964L197.16666666666666,156.33200022799588L199.33333333333334,157.22865413634668L201.5,157.58845825610274L203.66666666666666,158.56733810934549L205.83333333333331,158.27320343052222L208,158.41880325962526L210.16666666666666,159.1611299603547L212.33333333333334,159.74199485864435L214.5,159.56511445357617L216.66666666666669,159.97970398225917L218.83333333333334,160.28251832065607L221,160.45492620110588L223.16666666666666,160.4691902735983L225.33333333333334,160.2770675149801L227.5,160.70639754100102L229.66666666666666,161.15697853945767L231.83333333333334,160.92220361826168L234,161.37258498361612L236.16666666666666,161.54924829410555" style="fill: none;" fill="none"></path></g></g></g></g><g opacity="0.2"><g><g><g><path stroke="rgb(255, 112, 67)" stroke-width="2px" d="M23.833333333333332,-3.1790569592267666L26,22.999298136681297L28.166666666666668,38.09361865930257L30.333333333333332,48.20886448211966L32.5,52.992310451343634L34.666666666666664,63.531864976510384L36.833333333333336,67.32797723449765L39,68.82678096368907L41.166666666666664,82.32240223512052L43.33333333333333,83.43555320240556L45.5,86.23613075539468L47.666666666666664,89.52629527263343L49.833333333333336,93.93987230211496L52,95.0763074979186L54.16666666666667,101.5561640560627L56.333333333333336,102.01760389097035L58.5,102.0662328992039L60.666666666666664,109.55749040655792L62.833333333333336,104.97074465453625L65,109.23802254907787L67.16666666666667,113.48411797732115L69.33333333333333,116.80894096568227L71.5,119.10097448341548L73.66666666666667,119.89506970345974L75.83333333333334,121.68498810566962L78,122.51798653230071L80.16666666666667,125.23061976023018L82.33333333333333,124.48676077835262L84.5,125.62822371907532L86.66666666666666,130.27456061169505L88.83333333333333,128.25736341252923L91,131.7619900982827L93.16666666666667,133.7981443684548L95.33333333333333,132.07605931162834L97.5,133.40400213561952L99.66666666666667,136.51275572553277L101.83333333333333,135.02536744996905L104,137.13397070020437L106.16666666666667,138.1206862460822L108.33333333333334,138.3984897583723L110.5,138.35666056908667L112.66666666666667,141.35614312905818L114.83333333333333,141.7502647563815L117,142.6217954903841L119.16666666666666,143.1308546634391L121.33333333333333,143.92709285672754L123.5,142.3310929276049L125.66666666666667,141.09562764130533L127.83333333333333,144.24639587011188L130,144.77704961970448L132.16666666666666,145.70281406119466L134.33333333333334,146.77380615100265L136.5,147.85011446289718L138.66666666666666,148.0896123284474L140.83333333333331,148.80270728096366L143,149.44440413452685L145.16666666666666,148.51033567171544L147.33333333333334,149.59836851991713L149.5,150.13901594281197L151.66666666666669,148.5484970798716L153.83333333333334,151.0596908228472L156,148.7131969369948L158.16666666666666,152.1476000379771L160.33333333333334,153.378387873061L162.5,153.24323632009327L164.66666666666666,152.1300441417843L166.83333333333334,153.24645077995956L169,152.26016794983298L171.16666666666666,154.43932447303087L173.33333333333331,154.4723757142201L175.5,154.46403048187494L177.66666666666666,154.92981807980686L179.83333333333334,154.62619586102664L182,155.7928799483925L184.16666666666669,153.46070689335465L186.33333333333334,154.8775418959558L188.5,156.54273513425142L190.66666666666666,157.3243228085339L192.83333333333334,156.6163792340085L195,155.1556957019493L197.16666666666666,157.03341419063509L199.33333333333334,158.57363499887288L201.5,158.12816443573684L203.66666666666666,160.0356578892097L205.83333333333331,157.83200141228735L208,158.63720300327986L210.16666666666666,160.27462001144886L212.33333333333334,160.61329220607877L214.5,159.2997938459739L216.66666666666669,160.60158827528358L218.83333333333334,160.7367398282513L221,160.71353802178055L223.16666666666666,160.49058638233691L225.33333333333334,159.98888337705284L227.5,161.35039258003235L229.66666666666666,161.83285003714263L231.83333333333334,160.57004123646766L234,162.04815703164786L236.16666666666666,161.8142432598397" style="fill: none;" fill="none"></path></g></g></g></g></g></g><g transform="translate(70, 177)" clip-path="url(#clip_1)"><clipPath id="clip_1"><rect width="260" height="23"></rect></clipPath><g><g><line x1="0" y1="0" x2="0" y2="5" style="visibility: inherit;" fill="rgb(0, 0, 0)" stroke="rgb(204, 204, 204)" stroke-width="1px"></line><line x1="21.666666666666664" y1="0" x2="21.666666666666664" y2="5" style="visibility: inherit;" fill="rgb(0, 0, 0)" stroke="rgb(204, 204, 204)" stroke-width="1px"></line><line x1="43.33333333333333" y1="0" x2="43.33333333333333" y2="5" style="visibility: inherit;" fill="rgb(0, 0, 0)" stroke="rgb(204, 204, 204)" stroke-width="1px"></line><line x1="65" y1="0" x2="65" y2="5" style="visibility: inherit;" fill="rgb(0, 0, 0)" stroke="rgb(204, 204, 204)" stroke-width="1px"></line><line x1="86.66666666666666" y1="0" x2="86.66666666666666" y2="5" style="visibility: inherit;" fill="rgb(0, 0, 0)" stroke="rgb(204, 204, 204)" stroke-width="1px"></line><line x1="108.33333333333334" y1="0" x2="108.33333333333334" y2="5" style="visibility: inherit;" fill="rgb(0, 0, 0)" stroke="rgb(204, 204, 204)" stroke-width="1px"></line><line x1="130" y1="0" x2="130" y2="5" style="visibility: inherit;" fill="rgb(0, 0, 0)" stroke="rgb(204, 204, 204)" stroke-width="1px"></line><line x1="151.66666666666669" y1="0" x2="151.66666666666669" y2="5" style="visibility: inherit;" fill="rgb(0, 0, 0)" stroke="rgb(204, 204, 204)" stroke-width="1px"></line><line x1="173.33333333333331" y1="0" x2="173.33333333333331" y2="5" style="visibility: inherit;" fill="rgb(0, 0, 0)" stroke="rgb(204, 204, 204)" stroke-width="1px"></line><line x1="195" y1="0" x2="195" y2="5" style="visibility: inherit;" fill="rgb(0, 0, 0)" stroke="rgb(204, 204, 204)" stroke-width="1px"></line><line x1="216.66666666666669" y1="0" x2="216.66666666666669" y2="5" style="visibility: inherit;" fill="rgb(0, 0, 0)" stroke="rgb(204, 204, 204)" stroke-width="1px"></line><line x1="238.33333333333331" y1="0" x2="238.33333333333331" y2="5" style="visibility: inherit;" fill="rgb(0, 0, 0)" stroke="rgb(204, 204, 204)" stroke-width="1px"></line><line x1="260" y1="0" x2="260" y2="5" style="visibility: inherit;" fill="rgb(0, 0, 0)" stroke="rgb(204, 204, 204)" stroke-width="1px"></line></g><g transform="translate(0, 8)"><text x="0" y="0" dx="0em" dy="0.95em" style="text-anchor: middle; visibility: hidden; font-family: Roboto, sans-serif; font-size: 12px; font-weight: 200;" fill="rgb(33, 33, 33)" stroke="none" stroke-width="1px">-10</text><text x="21.666666666666664" y="0" dx="0em" dy="0.95em" style="text-anchor: middle; visibility: inherit; font-family: Roboto, sans-serif; font-size: 12px; font-weight: 200;" fill="rgb(33, 33, 33)" stroke="none" stroke-width="1px">0</text><text x="43.33333333333333" y="0" dx="0em" dy="0.95em" style="text-anchor: middle; visibility: inherit; font-family: Roboto, sans-serif; font-size: 12px; font-weight: 200;" fill="rgb(33, 33, 33)" stroke="none" stroke-width="1px">10</text><text x="65" y="0" dx="0em" dy="0.95em" style="text-anchor: middle; visibility: inherit; font-family: Roboto, sans-serif; font-size: 12px; font-weight: 200;" fill="rgb(33, 33, 33)" stroke="none" stroke-width="1px">20</text><text x="86.66666666666666" y="0" dx="0em" dy="0.95em" style="text-anchor: middle; visibility: inherit; font-family: Roboto, sans-serif; font-size: 12px; font-weight: 200;" fill="rgb(33, 33, 33)" stroke="none" stroke-width="1px">30</text><text x="108.33333333333334" y="0" dx="0em" dy="0.95em" style="text-anchor: middle; visibility: inherit; font-family: Roboto, sans-serif; font-size: 12px; font-weight: 200;" fill="rgb(33, 33, 33)" stroke="none" stroke-width="1px">40</text><text x="130" y="0" dx="0em" dy="0.95em" style="text-anchor: middle; visibility: inherit; font-family: Roboto, sans-serif; font-size: 12px; font-weight: 200;" fill="rgb(33, 33, 33)" stroke="none" stroke-width="1px">50</text><text x="151.66666666666669" y="0" dx="0em" dy="0.95em" style="text-anchor: middle; visibility: inherit; font-family: Roboto, sans-serif; font-size: 12px; font-weight: 200;" fill="rgb(33, 33, 33)" stroke="none" stroke-width="1px">60</text><text x="173.33333333333331" y="0" dx="0em" dy="0.95em" style="text-anchor: middle; visibility: inherit; font-family: Roboto, sans-serif; font-size: 12px; font-weight: 200;" fill="rgb(33, 33, 33)" stroke="none" stroke-width="1px">70</text><text x="195" y="0" dx="0em" dy="0.95em" style="text-anchor: middle; visibility: inherit; font-family: Roboto, sans-serif; font-size: 12px; font-weight: 200;" fill="rgb(33, 33, 33)" stroke="none" stroke-width="1px">80</text><text x="216.66666666666669" y="0" dx="0em" dy="0.95em" style="text-anchor: middle; visibility: inherit; font-family: Roboto, sans-serif; font-size: 12px; font-weight: 200;" fill="rgb(33, 33, 33)" stroke="none" stroke-width="1px">90</text><text x="238.33333333333331" y="0" dx="0em" dy="0.95em" style="text-anchor: middle; visibility: inherit; font-family: Roboto, sans-serif; font-size: 12px; font-weight: 200;" fill="rgb(33, 33, 33)" stroke="none" stroke-width="1px">100</text><text x="260" y="0" dx="0em" dy="0.95em" style="text-anchor: middle; visibility: hidden; font-family: Roboto, sans-serif; font-size: 12px; font-weight: 200;" fill="rgb(33, 33, 33)" stroke="none" stroke-width="1px">110</text></g><line x1="0" y1="0" x2="260" y2="0" fill="rgb(0, 0, 0)" stroke="rgb(204, 204, 204)" stroke-width="1px"></line></g></g></g></g></svg>